<?xml version="1.0" encoding="utf-8"?>
<!-- Generator: Adobe Illustrator 15.0.0, SVG Export Plug-In . SVG Version: 6.00 Build 0)  -->
<!DOCTYPE svg PUBLIC "-//W3C//DTD SVG 1.1//EN" "http://www.w3.org/Graphics/SVG/1.1/DTD/svg11.dtd">
<svg version="1.1" id="Layer_1" xmlns="http://www.w3.org/2000/svg" xmlns:xlink="http://www.w3.org/1999/xlink" x="0px" y="0px"
	 width="100px" height="100px" viewBox="0 0 100 100" enable-background="new 0 0 100 100" xml:space="preserve">
<linearGradient id="SVGID_1_" gradientUnits="userSpaceOnUse" x1="118.8252" y1="50.0005" x2="-19.3761" y2="50.0005">
	<stop  offset="0" style="stop-color:#FF000B"/>
	<stop  offset="1" style="stop-color:#FFB700"/>
</linearGradient>
<path fill="url(#SVGID_1_)" d="M80.791,18.672C79.855,17.751,81.728,19.592,80.791,18.672L80.791,18.672z M49.62,6.075
	C50.934,6.063,48.307,6.086,49.62,6.075L49.62,6.075z M18.672,19.209C19.592,18.272,17.751,20.146,18.672,19.209L18.672,19.209z
	 M6.076,50.38C6.063,49.066,6.086,51.693,6.076,50.38L6.076,50.38z M19.209,81.329C18.271,80.408,20.145,82.25,19.209,81.329
	L19.209,81.329z M50.379,93.925C49.066,93.937,51.691,93.914,50.379,93.925L50.379,93.925z M81.328,80.792
	c-0.001,0.002-0.003,0.003-0.004,0.004C81.096,81.029,80.871,81.259,81.328,80.792z M81.333,80.788
	c-0.002,0.001-0.003,0.003-0.005,0.004C81.786,80.326,81.562,80.556,81.333,80.788z M93.924,49.62
	C93.937,50.934,93.914,48.308,93.924,49.62L93.924,49.62z M99.034,69.609c0.798-1.996,0.869-3.848,0.156-4.133
	c-0.715-0.284-1.938,1.104-2.736,3.101c-0.8,1.996-0.87,3.847-0.156,4.132C97.012,72.993,98.237,71.606,99.034,69.609
	c-1.191,2.979-3.019,5.048-4.082,4.624c-0.66-0.265-0.871-1.429-0.65-2.987c-0.329-0.625-0.833-1.309-1.559-1.822
	c-0.395-0.278-0.856-0.492-1.329-0.759c-0.476-0.262-0.979-0.53-1.51-0.785c-1.048-0.541-2.194-1.047-3.362-1.5
	c-2.329-0.921-4.751-1.609-6.544-2.185c-0.447-0.147-0.864-0.266-1.262-0.299c-0.396-0.038-0.762-0.017-1.078,0.035
	c-0.209,0.035-0.385,0.082-0.54,0.131c-0.976,1.885-2.124,3.633-3.423,5.228c-0.001,0.049-0.004,0.092-0.006,0.145
	c-0.007,0.245,0.011,0.519,0.047,0.814c0.033,0.298,0.098,0.607,0.198,0.913c0.099,0.31,0.231,0.617,0.407,0.907
	c0.171,0.296,0.386,0.571,0.589,0.875c0.428,0.589,0.902,1.197,1.443,1.737c0.54,0.541,1.131,1.032,1.706,1.469
	c0.588,0.424,1.11,0.848,1.604,1.163c0.47,0.279,0.986,0.387,1.414,0.422c0.809-0.497,1.505-0.663,1.812-0.361
	c0.499,0.491-0.209,2.019-1.578,3.414c-0.003,0.003-0.006,0.005-0.009,0.008c-1.372,1.395-2.888,2.128-3.386,1.639
	c-0.307-0.303-0.154-1.002,0.329-1.821c-0.042-0.426-0.158-0.939-0.444-1.405c-0.325-0.487-0.757-1.003-1.192-1.584
	c-0.447-0.567-0.946-1.149-1.498-1.681c-0.549-0.531-1.165-0.995-1.761-1.412c-0.308-0.198-0.586-0.409-0.885-0.574
	c-0.294-0.171-0.603-0.299-0.915-0.392c-0.307-0.096-0.617-0.155-0.916-0.184c-0.297-0.031-0.569-0.043-0.815-0.032
	c-0.056,0.002-0.102,0.007-0.152,0.01c-1.178,0.99-2.423,1.89-3.727,2.688c-0.117,0.21-0.271,0.505-0.407,0.855
	c-0.304,0.726-0.517,1.668-0.433,2.653c0.035,0.497,0.189,0.983,0.326,1.511c0.137,0.526,0.281,1.083,0.458,1.645
	c0.166,0.568,0.346,1.151,0.557,1.731c0.206,0.582,0.435,1.165,0.683,1.741c0.494,1.149,1.079,2.262,1.66,3.29
	c0.288,0.515,0.571,1.011,0.854,1.475c0.286,0.462,0.52,0.916,0.812,1.302c0.537,0.713,1.236,1.201,1.871,1.516
	c1.544-0.255,2.706-0.073,2.985,0.577c0.451,1.053-1.572,2.933-4.521,4.195c1.975-0.847,3.334-2.106,3.031-2.811
	c-0.305-0.707-2.152-0.593-4.127,0.254c-1.978,0.85-3.333,2.105-3.032,2.813c0.304,0.706,2.15,0.593,4.128-0.257
	c-2.951,1.265-5.705,1.436-6.157,0.383c-0.279-0.652,0.392-1.62,1.642-2.563c0.209-0.675,0.337-1.518,0.191-2.398
	c-0.078-0.478-0.244-0.959-0.383-1.486c-0.141-0.524-0.304-1.071-0.479-1.635c-0.345-1.13-0.747-2.32-1.239-3.473
	c-0.245-0.575-0.51-1.143-0.789-1.693c-0.275-0.553-0.574-1.085-0.871-1.597c-0.285-0.517-0.588-1.004-0.874-1.466
	c-0.288-0.462-0.534-0.91-0.87-1.277c-0.656-0.74-1.484-1.237-2.221-1.518c-0.348-0.143-0.667-0.233-0.9-0.294
	c-1.546,0.413-3.129,0.699-4.732,0.866c-0.039,0.036-0.075,0.066-0.116,0.107c-0.18,0.168-0.36,0.373-0.545,0.607
	c-0.187,0.235-0.359,0.499-0.505,0.787c-0.149,0.288-0.271,0.6-0.353,0.931c-0.09,0.328-0.131,0.676-0.202,1.035
	c-0.114,0.717-0.21,1.483-0.208,2.248c-0.002,0.765,0.068,1.529,0.167,2.245c0.115,0.717,0.186,1.386,0.311,1.958
	c0.136,0.528,0.424,0.968,0.7,1.295c0.926,0.221,1.536,0.597,1.541,1.029c0.006,0.699-1.579,1.278-3.537,1.295
	c-1.958,0.018-3.552-0.537-3.557-1.234c-0.004-0.432,0.599-0.817,1.519-1.054c0.272-0.331,0.553-0.777,0.679-1.309
	c0.116-0.575,0.174-1.245,0.277-1.963c0.086-0.718,0.144-1.482,0.129-2.247c-0.012-0.765-0.12-1.529-0.246-2.245
	c-0.078-0.357-0.125-0.704-0.22-1.032c-0.087-0.328-0.215-0.638-0.37-0.923c-0.15-0.285-0.327-0.547-0.518-0.779
	c-0.188-0.23-0.373-0.432-0.554-0.598c-0.04-0.037-0.074-0.066-0.112-0.1c-1.976-0.169-3.958-0.532-5.92-1.104
	c-0.143,0.08-0.297,0.174-0.467,0.301c-0.256,0.193-0.523,0.444-0.769,0.757c-0.25,0.312-0.452,0.694-0.654,1.119
	c-0.82,1.695-1.992,3.925-2.93,6.247c-0.478,1.157-0.902,2.337-1.233,3.469c-0.181,0.559-0.334,1.109-0.471,1.634
	c-0.134,0.526-0.298,1.009-0.368,1.487c-0.128,0.879,0.02,1.718,0.246,2.388c1.278,0.914,1.977,1.868,1.713,2.527
	c-0.426,1.063-3.186,0.962-6.164-0.23c1.996,0.798,3.847,0.868,4.132,0.156c0.285-0.716-1.104-1.939-3.1-2.738
	c-1.997-0.8-3.847-0.867-4.131-0.154c-0.286,0.713,1.102,1.938,3.099,2.736c-2.98-1.19-5.048-3.019-4.624-4.083
	c0.265-0.66,1.428-0.87,2.984-0.65c0.626-0.329,1.311-0.834,1.825-1.56c0.278-0.394,0.493-0.856,0.759-1.33
	c0.262-0.475,0.53-0.979,0.785-1.509c0.541-1.048,1.048-2.194,1.5-3.362c0.922-2.329,1.61-4.751,2.185-6.544
	c0.147-0.447,0.266-0.863,0.298-1.261c0.039-0.396,0.017-0.763-0.035-1.078c-0.035-0.209-0.083-0.384-0.13-0.54
	c-1.885-0.975-3.633-2.124-5.229-3.423c-0.048-0.002-0.091-0.005-0.143-0.006c-0.246-0.007-0.519,0.01-0.815,0.047
	c-0.298,0.033-0.607,0.098-0.913,0.198c-0.31,0.099-0.617,0.231-0.907,0.408c-0.296,0.169-0.57,0.386-0.875,0.589
	c-0.588,0.426-1.196,0.901-1.737,1.443c-0.542,0.539-1.032,1.13-1.469,1.706c-0.424,0.587-0.847,1.11-1.164,1.604
	c-0.278,0.471-0.386,0.987-0.421,1.414c0.497,0.811,0.664,1.506,0.362,1.813c-0.491,0.5-2.021-0.21-3.417-1.583
	c-1.398-1.373-2.133-2.892-1.643-3.391c0.302-0.308,1.001-0.153,1.82,0.329c0.426-0.042,0.94-0.158,1.405-0.444
	c0.488-0.324,1.003-0.757,1.584-1.191c0.568-0.447,1.15-0.947,1.681-1.499c0.532-0.549,0.996-1.165,1.413-1.761
	c0.198-0.308,0.409-0.586,0.574-0.885c0.17-0.294,0.299-0.603,0.391-0.915c0.096-0.307,0.155-0.618,0.184-0.916
	c0.031-0.297,0.042-0.569,0.031-0.815c-0.001-0.056-0.006-0.101-0.009-0.152c-0.993-1.18-1.895-2.427-2.693-3.733
	c-0.203-0.102-0.489-0.239-0.828-0.351c-0.359-0.144-0.764-0.242-1.212-0.318c-0.445-0.071-0.932-0.114-1.427-0.076
	c-0.498,0.03-1.009,0.131-1.528,0.283c-0.523,0.146-1.085,0.273-1.648,0.452c-1.138,0.327-2.33,0.723-3.482,1.214
	c-0.577,0.243-1.146,0.506-1.696,0.786c-0.546,0.289-1.092,0.558-1.602,0.857c-0.515,0.29-1.011,0.571-1.475,0.855
	c-0.462,0.288-0.915,0.522-1.3,0.815c-0.712,0.539-1.2,1.239-1.515,1.872c0.254,1.543,0.072,2.705-0.58,2.984
	c-1.052,0.451-2.931-1.573-4.195-4.521c0.848,1.975,2.107,3.333,2.812,3.032c0.706-0.305,0.592-2.15-0.255-4.126l-0.001-0.004
	c-0.848-1.976-2.106-3.332-2.811-3.03c-0.708,0.304-0.593,2.151,0.255,4.128c-1.264-2.949-1.435-5.705-0.381-6.157
	c0.651-0.278,1.618,0.391,2.56,1.639c0.675,0.209,1.519,0.337,2.4,0.193c0.478-0.077,0.96-0.243,1.487-0.38
	c0.525-0.14,1.072-0.305,1.636-0.478c0.569-0.163,1.14-0.373,1.725-0.569c0.583-0.205,1.166-0.436,1.739-0.687
	c1.15-0.495,2.259-1.086,3.28-1.684c0.517-0.285,0.998-0.604,1.463-0.883c0.469-0.271,0.894-0.572,1.259-0.912
	c0.369-0.332,0.673-0.715,0.929-1.086c0.253-0.377,0.46-0.737,0.605-1.096c0.152-0.323,0.25-0.626,0.316-0.843
	c-0.414-1.549-0.7-3.135-0.867-4.741c-0.036-0.039-0.067-0.075-0.107-0.116c-0.168-0.18-0.374-0.36-0.608-0.545
	c-0.235-0.187-0.499-0.359-0.788-0.504c-0.288-0.149-0.6-0.272-0.929-0.354c-0.329-0.09-0.676-0.131-1.035-0.202
	c-0.718-0.114-1.483-0.209-2.249-0.208c-0.765-0.002-1.529,0.069-2.245,0.168c-0.716,0.115-1.385,0.186-1.957,0.311
	c-0.53,0.136-0.97,0.424-1.297,0.702c-0.221,0.924-0.595,1.534-1.027,1.538c-0.701,0.007-1.28-1.577-1.296-3.536
	c-0.018-1.96,0.535-3.553,1.235-3.558c0.431-0.004,0.817,0.599,1.054,1.518c0.332,0.272,0.777,0.553,1.309,0.68
	c0.574,0.115,1.244,0.174,1.962,0.277c0.718,0.085,1.483,0.144,2.248,0.128c0.765-0.012,1.529-0.119,2.245-0.246
	c0.358-0.078,0.704-0.125,1.032-0.22c0.328-0.087,0.638-0.215,0.923-0.37c0.286-0.149,0.547-0.327,0.778-0.518
	c0.232-0.188,0.433-0.373,0.599-0.555c0.037-0.04,0.066-0.074,0.099-0.111c0.118-1.375,0.33-2.755,0.642-4.128
	c-0.011-0.025-0.016-0.04-0.029-0.069c-0.079-0.198-0.211-0.447-0.379-0.764c-0.177-0.295-0.388-0.664-0.655-1.022
	c-0.265-0.365-0.58-0.736-0.937-1.111c-0.362-0.357-0.759-0.735-1.209-1.059c-0.444-0.341-0.937-0.635-1.447-0.939
	c-1.019-0.616-2.121-1.232-3.267-1.739c-1.14-0.52-2.339-0.895-3.474-1.219c-0.573-0.149-1.122-0.305-1.653-0.423
	c-0.533-0.118-1.022-0.265-1.503-0.325c-0.89-0.114-1.731,0.037-2.401,0.259c-0.908,1.263-1.854,1.951-2.511,1.688
	c-1.063-0.425-0.959-3.185,0.231-6.164c-0.798,1.997-0.869,3.847-0.155,4.132c0.714,0.285,1.939-1.103,2.737-3.1
	c0.798-1.996,0.868-3.845,0.155-4.131c-0.714-0.285-1.939,1.103-2.737,3.099c1.191-2.979,3.019-5.048,4.083-4.623
	c0.655,0.262,0.866,1.413,0.653,2.953c0.332,0.623,0.837,1.313,1.561,1.844c0.39,0.288,0.846,0.519,1.313,0.801
	c0.467,0.28,0.972,0.546,1.489,0.833c1.045,0.547,2.172,1.103,3.357,1.512c1.179,0.424,2.402,0.738,3.564,0.995
	c0.58,0.131,1.14,0.258,1.696,0.318c0.549,0.076,1.098,0.075,1.606,0.066c0.517-0.026,1-0.077,1.444-0.159
	c0.441-0.076,0.848-0.198,1.18-0.289c0.341-0.114,0.608-0.203,0.802-0.292c0.029-0.012,0.042-0.019,0.068-0.03
	c0.761-1.276,1.604-2.483,2.523-3.613c0.002-0.048,0.005-0.091,0.006-0.143c0.007-0.246-0.009-0.519-0.045-0.815
	c-0.034-0.298-0.098-0.607-0.2-0.913c-0.097-0.309-0.231-0.617-0.407-0.907c-0.17-0.296-0.386-0.571-0.589-0.875
	c-0.427-0.588-0.901-1.196-1.443-1.737c-0.54-0.541-1.131-1.032-1.706-1.469c-0.588-0.424-1.111-0.848-1.604-1.164
	c-0.47-0.278-0.985-0.386-1.413-0.42c-0.81,0.498-1.506,0.663-1.814,0.361c-0.5-0.491,0.21-2.021,1.583-3.417
	c1.374-1.398,2.89-2.133,3.39-1.643c0.308,0.302,0.154,1.001-0.329,1.819c0.042,0.427,0.158,0.94,0.445,1.406
	c0.325,0.488,0.757,1.003,1.191,1.584c0.447,0.568,0.948,1.15,1.499,1.68c0.55,0.532,1.166,0.996,1.762,1.413
	c0.308,0.198,0.586,0.409,0.885,0.574c0.293,0.17,0.603,0.299,0.914,0.391c0.308,0.096,0.618,0.156,0.917,0.184
	c0.296,0.031,0.569,0.043,0.815,0.032c0.056-0.002,0.101-0.006,0.152-0.01c1.545-1.3,3.208-2.44,4.964-3.405
	c0.044-0.157,0.087-0.333,0.117-0.542c0.044-0.317,0.057-0.684,0.008-1.079c-0.042-0.397-0.171-0.81-0.329-1.253
	c-0.62-1.778-1.367-4.184-2.346-6.488c-0.481-1.157-1.015-2.29-1.581-3.325c-0.268-0.523-0.549-1.021-0.822-1.489
	c-0.278-0.466-0.503-0.924-0.792-1.311c-0.532-0.712-1.228-1.2-1.862-1.514c-1.55,0.257-2.718,0.076-2.999-0.577
	c-0.451-1.053,1.574-2.931,4.522-4.195c-1.976,0.847-3.334,2.106-3.031,2.812c0.302,0.705,2.15,0.591,4.127-0.257
	c1.977-0.846,3.333-2.106,3.031-2.812c-0.303-0.706-2.151-0.591-4.127,0.256c2.949-1.264,5.704-1.435,6.156-0.382
	c0.28,0.653-0.395,1.625-1.65,2.57c-0.21,0.676-0.337,1.516-0.187,2.393c0.082,0.476,0.257,0.954,0.404,1.477
	c0.15,0.521,0.317,1.066,0.511,1.622c0.359,1.124,0.812,2.292,1.318,3.438c0.995,2.299,2.221,4.498,3.083,6.172
	c0.212,0.42,0.422,0.798,0.681,1.103c0.253,0.307,0.526,0.551,0.787,0.738c0.172,0.123,0.329,0.214,0.473,0.29
	c1.979-0.629,4.025-1.052,6.106-1.268c0.039-0.035,0.076-0.066,0.117-0.107c0.179-0.168,0.36-0.374,0.544-0.608
	c0.187-0.234,0.36-0.499,0.504-0.787c0.149-0.288,0.273-0.6,0.354-0.929c0.089-0.329,0.13-0.676,0.202-1.036
	c0.114-0.718,0.208-1.483,0.208-2.248c0.001-0.765-0.069-1.529-0.167-2.245c-0.116-0.717-0.186-1.385-0.311-1.958
	c-0.136-0.53-0.424-0.97-0.702-1.297c-0.924-0.221-1.534-0.596-1.538-1.027c-0.006-0.7,1.577-1.28,3.536-1.297
	c1.96-0.017,3.552,0.536,3.558,1.236c0.005,0.431-0.599,0.816-1.518,1.053c-0.272,0.332-0.554,0.778-0.681,1.309
	c-0.115,0.575-0.174,1.245-0.278,1.963c-0.085,0.717-0.143,1.482-0.128,2.247c0.012,0.765,0.12,1.529,0.247,2.245
	c0.077,0.358,0.125,0.704,0.219,1.032c0.087,0.328,0.215,0.637,0.37,0.923c0.148,0.286,0.327,0.547,0.518,0.779
	c0.188,0.231,0.373,0.433,0.555,0.598c0.04,0.037,0.074,0.066,0.112,0.1c1.977,0.169,3.958,0.533,5.92,1.105
	c0.143-0.08,0.298-0.175,0.466-0.302c0.256-0.193,0.524-0.444,0.77-0.756c0.251-0.311,0.452-0.694,0.653-1.119
	c0.819-1.696,1.991-3.925,2.929-6.247c0.479-1.158,0.902-2.337,1.233-3.469c0.181-0.56,0.334-1.11,0.471-1.634
	c0.134-0.526,0.298-1.009,0.368-1.486c0.128-0.88-0.021-1.718-0.247-2.388c-1.277-0.914-1.975-1.868-1.711-2.527
	c0.427-1.064,3.185-0.961,6.163,0.23c-1.995-0.798-3.847-0.868-4.131-0.155c-0.286,0.713,1.103,1.939,3.098,2.737
	c1.998,0.799,3.848,0.868,4.132,0.155c0.285-0.713-1.102-1.938-3.099-2.737c2.979,1.191,5.049,3.019,4.623,4.083
	c-0.264,0.66-1.428,0.87-2.983,0.65c-0.627,0.33-1.31,0.834-1.825,1.56c-0.279,0.395-0.492,0.857-0.759,1.331
	c-0.261,0.474-0.529,0.979-0.784,1.508c-0.541,1.048-1.048,2.195-1.499,3.363c-0.922,2.329-1.61,4.751-2.186,6.544
	c-0.147,0.447-0.266,0.863-0.299,1.261c-0.038,0.396-0.017,0.761,0.035,1.078c0.035,0.209,0.082,0.384,0.131,0.541
	c1.885,0.974,3.633,2.123,5.229,3.421c0.049,0.001,0.091,0.005,0.144,0.006c0.246,0.007,0.519-0.01,0.814-0.045
	c0.298-0.034,0.607-0.098,0.913-0.2c0.31-0.098,0.617-0.231,0.907-0.407c0.296-0.17,0.571-0.386,0.875-0.589
	c0.588-0.427,1.197-0.902,1.736-1.443c0.542-0.54,1.032-1.131,1.47-1.707c0.424-0.587,0.848-1.109,1.163-1.603
	c0.278-0.472,0.387-0.988,0.421-1.417c-0.496-0.809-0.662-1.504-0.361-1.811c0.491-0.499,2.022,0.21,3.418,1.583
	c1.398,1.374,2.133,2.89,1.642,3.39c-0.301,0.307-1,0.154-1.818-0.33c-0.427,0.042-0.941,0.159-1.407,0.445
	c-0.487,0.325-1.002,0.757-1.583,1.191c-0.568,0.447-1.15,0.947-1.681,1.498c-0.531,0.55-0.996,1.166-1.412,1.762
	c-0.198,0.308-0.409,0.586-0.574,0.885c-0.171,0.293-0.299,0.604-0.392,0.915c-0.096,0.307-0.154,0.618-0.184,0.917
	c-0.03,0.296-0.042,0.569-0.03,0.815c0.001,0.056,0.006,0.102,0.009,0.153c1.266,1.504,2.378,3.123,3.326,4.829
	c0.146,0.01,0.314,0.02,0.521,0.019c0.597,0.001,1.425-0.054,2.354-0.272c0.935-0.203,1.955-0.604,3.076-0.968
	c1.114-0.379,2.309-0.771,3.473-1.233c0.588-0.219,1.157-0.479,1.725-0.722c0.561-0.257,1.106-0.522,1.627-0.799
	c0.521-0.272,1.019-0.552,1.484-0.832c0.464-0.284,0.919-0.514,1.303-0.81c0.713-0.541,1.201-1.241,1.517-1.875
	c-0.253-1.541-0.07-2.701,0.58-2.979c1.052-0.451,2.929,1.573,4.193,4.521c-0.848-1.975-2.105-3.334-2.812-3.031
	c-0.706,0.304-0.592,2.151,0.255,4.127c0.849,1.977,2.107,3.334,2.814,3.031c0.705-0.303,0.592-2.15-0.258-4.127
	c1.265,2.95,1.436,5.706,0.382,6.157c-0.651,0.278-1.617-0.391-2.559-1.638c-0.676-0.208-1.519-0.337-2.4-0.194
	c-0.479,0.074-0.96,0.246-1.485,0.385c-0.523,0.145-1.068,0.312-1.626,0.503c-0.56,0.186-1.128,0.398-1.7,0.627
	c-0.566,0.244-1.147,0.478-1.711,0.751c-1.138,0.525-2.245,1.12-3.288,1.667c-1.036,0.562-2.03,1.024-2.822,1.561
	c-0.798,0.521-1.408,1.083-1.818,1.517c-0.145,0.149-0.253,0.277-0.347,0.391c0.604,1.932,1.014,3.927,1.224,5.956
	c0.035,0.039,0.066,0.075,0.105,0.116c0.17,0.179,0.374,0.36,0.609,0.544c0.234,0.187,0.498,0.36,0.786,0.504
	c0.288,0.15,0.601,0.273,0.93,0.355c0.33,0.089,0.677,0.13,1.035,0.201c0.719,0.114,1.484,0.209,2.249,0.208
	c0.765,0,1.528-0.07,2.245-0.168c0.716-0.115,1.384-0.186,1.956-0.311c0.53-0.135,0.972-0.425,1.299-0.702
	c0.221-0.924,0.595-1.533,1.026-1.538c0.701-0.005,1.28,1.578,1.296,3.536c0.019,1.96-0.535,3.554-1.234,3.559
	c-0.432,0.004-0.817-0.6-1.055-1.52c-0.331-0.271-0.777-0.554-1.308-0.68c-0.575-0.115-1.245-0.174-1.963-0.278
	c-0.718-0.085-1.483-0.143-2.248-0.128c-0.765,0.012-1.528,0.12-2.244,0.247c-0.357,0.077-0.704,0.125-1.031,0.22
	c-0.328,0.087-0.638,0.215-0.923,0.369c-0.286,0.149-0.547,0.328-0.779,0.519c-0.231,0.188-0.433,0.372-0.599,0.555
	c-0.037,0.039-0.065,0.074-0.099,0.111c-0.169,1.975-0.532,3.957-1.104,5.919c0.079,0.142,0.174,0.298,0.302,0.467
	c0.192,0.256,0.444,0.524,0.758,0.77c0.31,0.25,0.692,0.452,1.117,0.653c1.695,0.82,3.925,1.991,6.248,2.93
	c1.157,0.478,2.337,0.901,3.469,1.233c0.56,0.181,1.109,0.334,1.634,0.471c0.526,0.134,1.009,0.298,1.486,0.367
	c0.88,0.128,1.718-0.019,2.388-0.245c0.914-1.279,1.868-1.977,2.527-1.714C100.33,63.871,100.225,66.63,99.034,69.609z
	 M31.31,47.291c1.341,0.383,2.903-0.967,3.489-3.016c0.585-2.049-0.028-4.021-1.369-4.405c-1.342-0.383-2.904,0.968-3.49,3.017
	C29.356,44.935,29.969,46.908,31.31,47.291z M40.955,55.941c-1.486-2.806-4.76-3.984-7.313-2.633
	c-2.553,1.352-3.419,4.722-1.935,7.527c1.484,2.806,4.758,3.984,7.312,2.633C41.572,62.118,42.438,58.747,40.955,55.941z
	 M44.654,30.755c-0.548-1.284-2.581-1.645-4.542-0.808c-1.959,0.836-3.104,2.554-2.557,3.838c0.549,1.283,2.582,1.645,4.541,0.808
	C44.057,33.756,45.202,32.038,44.654,30.755z M54.437,69.298c0.023-1.762-2.138-3.22-4.828-3.257s-4.891,1.362-4.916,3.123
	c-0.023,1.762,2.136,3.218,4.828,3.255C52.211,72.457,54.411,71.059,54.437,69.298z M52.267,44.332
	c-2.602-1.04-5.555,0.226-6.596,2.828c-1.041,2.602,0.226,5.555,2.828,6.595c2.602,1.04,5.554-0.226,6.596-2.828
	C56.135,48.326,54.869,45.373,52.267,44.332z M61.988,35.664c0.834-2.084-0.905-4.74-3.884-5.931
	c-2.978-1.191-6.068-0.467-6.902,1.619c-0.833,2.085,0.905,4.74,3.884,5.931C58.065,38.474,61.154,37.749,61.988,35.664z
	 M68.133,55.599c-2.346-1.688-5.75-0.965-7.602,1.612c-1.854,2.576-1.456,6.032,0.89,7.72c2.347,1.687,5.751,0.965,7.603-1.612
	C70.878,60.741,70.479,57.285,68.133,55.599z M72.572,43.84c-0.278-2.113-1.626-3.677-3.01-3.495
	c-1.382,0.183-2.277,2.043-1.998,4.156c0.279,2.113,1.625,3.677,3.009,3.495C71.956,47.812,72.851,45.953,72.572,43.84z"/>
</svg>
