<?xml version="1.0" encoding="utf-8"?>
<!-- Generator: Adobe Illustrator 15.0.0, SVG Export Plug-In . SVG Version: 6.00 Build 0)  -->
<!DOCTYPE svg PUBLIC "-//W3C//DTD SVG 1.1//EN" "http://www.w3.org/Graphics/SVG/1.1/DTD/svg11.dtd">
<svg version="1.1" id="Layer_1" xmlns="http://www.w3.org/2000/svg" xmlns:xlink="http://www.w3.org/1999/xlink" x="0px" y="0px"
	 width="62px" height="45px" viewBox="-0.917 -0.511 62 45" enable-background="new -0.917 -0.511 62 45" xml:space="preserve">
<g>
	<path fill-rule="evenodd" clip-rule="evenodd" fill="#9CDBF8" d="M2.632,15.55h4.825L14.8,39.678
		c0.266,0.873,0.715,1.677,1.295,2.391c-0.717-0.479-1.311-1.018-1.707-1.588L-0.489,19.07C-1.835,17.134-0.43,15.55,2.632,15.55z"
		/>
	<path fill-rule="evenodd" clip-rule="evenodd" fill="#00A4DE" d="M11.542,5.559h3.649v30.287L7.422,10.315
		C6.626,7.699,8.48,5.559,11.542,5.559z"/>
	<path fill-rule="evenodd" clip-rule="evenodd" fill="#0070B8" d="M22.249-1H55.12c3.062,0,5.567,2.506,5.567,5.567v33.865
		c0,3.062-2.506,5.567-5.567,5.567h-1.296V33.15v-0.996V9.85c0-2.106-1.725-3.831-3.832-3.831H27.376
		c-2.106,0-3.831,1.724-3.831,3.831V33.15c0,2.107,1.725,3.83,3.831,3.83h18.96L50.924,44H22.249c-3.062,0-5.567-2.506-5.567-5.567
		V4.567C16.681,1.505,19.187-1,22.249-1L22.249-1z M27.775,10.388v1.28h21.818v-1.28H27.775L27.775,10.388z M27.775,31.332v1.279
		h21.818v-1.279H27.775L27.775,31.332z M27.775,27.143v1.281h21.818v-1.281H27.775L27.775,27.143z M27.775,22.955v1.279h21.818
		v-1.279H27.775L27.775,22.955z M27.775,18.766v1.28h21.818v-1.28H27.775L27.775,18.766z M27.775,14.577v1.28h21.818v-1.28H27.775z"
		/>
	<path fill-rule="evenodd" clip-rule="evenodd" fill="#00476C" d="M60.688,19.214v19.218c0,3.062-2.506,5.567-5.567,5.567h-1.296
		V33.15v-0.996V9.85c0-0.663-0.172-1.287-0.471-1.833l0,0L60.688,19.214L60.688,19.214z M50.924,44H29.967l-5.342-8.19l0,0
		c0.698,0.722,1.675,1.171,2.751,1.171h18.96L50.924,44L50.924,44z M27.931,32.611l1.323-1.279h20.34v1.279H27.931L27.931,32.611z
		 M32.261,28.424l1.323-1.281h16.01v1.281H32.261L32.261,28.424z M36.59,24.234l1.324-1.279h11.68v1.279H36.59L36.59,24.234z
		 M40.92,20.045l1.323-1.28h7.351v1.28H40.92L40.92,20.045z M45.25,15.857l1.323-1.28h3.021v1.28H45.25L45.25,15.857z M49.58,11.668
		l0.014-0.013v0.013H49.58z"/>
</g>
</svg>
