<?xml version="1.0" encoding="utf-8"?>
<!-- Generator: Adobe Illustrator 15.0.0, SVG Export Plug-In . SVG Version: 6.00 Build 0)  -->
<!DOCTYPE svg PUBLIC "-//W3C//DTD SVG 1.1//EN" "http://www.w3.org/Graphics/SVG/1.1/DTD/svg11.dtd">
<svg version="1.1" id="Layer_1" xmlns="http://www.w3.org/2000/svg" xmlns:xlink="http://www.w3.org/1999/xlink" x="0px" y="0px"
	 width="178px" height="45px" viewBox="-0.667 -0.511 178 45" enable-background="new -0.667 -0.511 178 45" xml:space="preserve">
<g enable-background="new    ">
	<path fill="#262626" d="M90.656,29.723V16.332l-5.305,13.391h-1.301l-5.33-13.391v13.391H75.68V12.379h4.289l4.732,11.909
		l4.707-11.909h4.289v17.343H90.656z"/>
	<path fill="#262626" d="M103.707,29.723v-1.379c-0.936,1.092-2.418,1.69-4.082,1.69c-2.028,0-4.342-1.403-4.342-4.16
		c0-2.912,2.287-4.108,4.342-4.108c1.716,0,3.146,0.546,4.082,1.612v-1.872c0-1.456-1.223-2.34-2.938-2.34
		c-1.404,0-2.652,0.521-3.719,1.612l-1.145-1.898c1.457-1.404,3.276-2.028,5.279-2.028c2.808,0,5.252,1.17,5.252,4.524v8.347
		H103.707z M103.707,26.861v-1.924c-0.65-0.857-1.82-1.299-2.99-1.299c-1.534,0-2.704,0.909-2.704,2.262
		c0,1.377,1.17,2.262,2.704,2.262C101.887,28.162,103.057,27.721,103.707,26.861z"/>
	<path fill="#262626" d="M108.517,32.946l1.274-1.976c1.039,1.17,2.34,1.611,4.004,1.611c1.794,0,3.718-0.832,3.718-3.51v-1.43
		c-0.962,1.273-2.392,2.105-4.03,2.105c-3.198,0-5.564-2.314-5.564-6.448c0-4.082,2.314-6.448,5.564-6.448
		c1.586,0,3.016,0.702,4.03,2.054v-1.742h2.729v11.909c0,4.523-3.379,5.746-6.447,5.746
		C111.662,34.818,110.076,34.35,108.517,32.946z M117.513,25.641v-4.707c-0.624-0.91-1.95-1.664-3.224-1.664
		c-2.185,0-3.562,1.612-3.562,4.03c0,2.419,1.378,4.005,3.562,4.005C115.562,27.305,116.889,26.551,117.513,25.641z"/>
	<path fill="#262626" d="M130.98,29.723V21.87c0-1.976-1.014-2.6-2.548-2.6c-1.378,0-2.574,0.832-3.224,1.664v8.789h-2.73V17.164
		h2.73v1.69c0.832-0.988,2.47-2.002,4.446-2.002c2.703,0,4.056,1.456,4.056,4.03v8.841H130.98z"/>
	<path fill="#262626" d="M135.634,13.939c0-0.936,0.754-1.69,1.69-1.69c0.936,0,1.689,0.754,1.689,1.69s-0.754,1.69-1.689,1.69
		C136.388,15.629,135.634,14.875,135.634,13.939z M135.946,29.723V17.164h2.729v12.559H135.946z"/>
	<path fill="#262626" d="M141.588,29.723V19.53h-2.08v-2.366h2.08v-0.702c0-2.808,1.664-4.342,3.952-4.342
		c0.884,0,1.638,0.156,2.21,0.468l-0.599,2.054c-0.285-0.182-0.649-0.286-1.092-0.286c-1.092,0-1.742,0.702-1.742,2.106v0.702h2.549
		v2.366h-2.549v10.193H141.588z M148.634,13.939c0-0.936,0.754-1.69,1.69-1.69c0.936,0,1.689,0.754,1.689,1.69
		s-0.754,1.69-1.689,1.69C149.388,15.629,148.634,14.875,148.634,13.939z M148.946,29.723V17.164h2.729v12.559H148.946z"/>
	<path fill="#262626" d="M153.157,23.43c0-3.796,2.679-6.578,6.475-6.578c2.47,0,3.926,1.04,4.811,2.236l-1.795,1.638
		c-0.701-0.988-1.664-1.456-2.886-1.456c-2.262,0-3.796,1.716-3.796,4.16c0,2.444,1.534,4.187,3.796,4.187
		c1.222,0,2.185-0.521,2.886-1.509l1.795,1.691c-0.885,1.17-2.341,2.235-4.811,2.235C155.836,30.034,153.157,27.227,153.157,23.43z"
		/>
	<path fill="#262626" d="M173.255,29.723v-1.379c-0.936,1.092-2.418,1.69-4.082,1.69c-2.027,0-4.342-1.403-4.342-4.16
		c0-2.912,2.288-4.108,4.342-4.108c1.717,0,3.146,0.546,4.082,1.612v-1.872c0-1.456-1.222-2.34-2.938-2.34
		c-1.404,0-2.652,0.521-3.719,1.612l-1.144-1.898c1.456-1.404,3.276-2.028,5.278-2.028c2.808,0,5.252,1.17,5.252,4.524v8.347
		H173.255z M173.255,26.861v-1.924c-0.649-0.857-1.819-1.299-2.989-1.299c-1.534,0-2.704,0.909-2.704,2.262
		c0,1.377,1.17,2.262,2.704,2.262C171.436,28.162,172.605,27.721,173.255,26.861z"/>
</g>
<g>
	<path fill-rule="evenodd" clip-rule="evenodd" fill="#9CDBF8" d="M2.632,15.55h4.825L14.8,39.678
		c0.266,0.873,0.715,1.677,1.295,2.391c-0.717-0.479-1.311-1.018-1.707-1.588L-0.489,19.07C-1.835,17.134-0.43,15.55,2.632,15.55z"
		/>
	<path fill-rule="evenodd" clip-rule="evenodd" fill="#00A4DE" d="M11.542,5.559h3.649v30.287L7.422,10.315
		C6.626,7.699,8.48,5.559,11.542,5.559z"/>
	<path fill-rule="evenodd" clip-rule="evenodd" fill="#0070B8" d="M22.249-1H55.12c3.062,0,5.567,2.506,5.567,5.567v33.865
		c0,3.062-2.506,5.567-5.567,5.567h-1.296V33.15v-0.996V9.85c0-2.106-1.725-3.831-3.832-3.831H27.376
		c-2.106,0-3.831,1.724-3.831,3.831V33.15c0,2.107,1.725,3.83,3.831,3.83h18.96L50.924,44H22.249c-3.062,0-5.567-2.506-5.567-5.567
		V4.567C16.681,1.505,19.187-1,22.249-1L22.249-1z M27.775,10.388v1.28h21.818v-1.28H27.775L27.775,10.388z M27.775,31.332v1.279
		h21.818v-1.279H27.775L27.775,31.332z M27.775,27.143v1.281h21.818v-1.281H27.775L27.775,27.143z M27.775,22.955v1.279h21.818
		v-1.279H27.775L27.775,22.955z M27.775,18.766v1.28h21.818v-1.28H27.775L27.775,18.766z M27.775,14.577v1.28h21.818v-1.28H27.775z"
		/>
	<path fill-rule="evenodd" clip-rule="evenodd" fill="#00476C" d="M60.688,19.214v19.218c0,3.062-2.506,5.567-5.567,5.567h-1.296
		V33.15v-0.996V9.85c0-0.663-0.172-1.287-0.471-1.833l0,0L60.688,19.214L60.688,19.214z M50.924,44H29.967l-5.342-8.19l0,0
		c0.698,0.722,1.675,1.171,2.751,1.171h18.96L50.924,44L50.924,44z M27.931,32.611l1.323-1.279h20.34v1.279H27.931L27.931,32.611z
		 M32.261,28.424l1.323-1.281h16.01v1.281H32.261L32.261,28.424z M36.59,24.234l1.324-1.279h11.68v1.279H36.59L36.59,24.234z
		 M40.92,20.045l1.323-1.28h7.351v1.28H40.92L40.92,20.045z M45.25,15.857l1.323-1.28h3.021v1.28H45.25L45.25,15.857z M49.58,11.668
		l0.014-0.013v0.013H49.58z"/>
</g>
</svg>
