<?xml version="1.0" encoding="utf-8"?>
<!-- Generator: Adobe Illustrator 15.0.0, SVG Export Plug-In . SVG Version: 6.00 Build 0)  -->
<!DOCTYPE svg PUBLIC "-//W3C//DTD SVG 1.1//EN" "http://www.w3.org/Graphics/SVG/1.1/DTD/svg11.dtd">
<svg version="1.1" id="Layer_1" xmlns="http://www.w3.org/2000/svg" xmlns:xlink="http://www.w3.org/1999/xlink" x="0px" y="0px"
	 width="70px" height="70px" viewBox="0 0 70 70" enable-background="new 0 0 70 70" xml:space="preserve">
<g>
	<g>
		<g>
			<path fill="#1D2C4C" d="M32.555,52.569c0.38,0,0.72,0.239,0.848,0.597c0.009,0.021,0.832,1.734,2.701,3.011
				c1.109,0.759,2.588,1.363,4.486,1.363h3.09h4.205h0.713h0.08h11.916c0.875,0,1.814-0.491,1.814-1.569
				c0-1.02-0.662-1.604-1.814-1.604h-8.771c-0.211,0-0.396-0.083-0.549-0.205c-0.209-0.164-0.35-0.407-0.35-0.694
				c0-0.496,0.402-0.898,0.898-0.898h8.098h0.674c0.146,0,0.285,0.021,0.426,0.035c0.059-0.012,0.113-0.035,0.176-0.035h5.273
				c1,0,1.814-0.817,1.814-1.82c0-0.884-0.477-1.915-1.814-1.915h-11.85h-0.471h-0.805c-0.496,0-0.898-0.402-0.898-0.9
				c0-0.496,0.402-0.898,0.898-0.898h0.709h0.096h12.32h1.715c0.951,0,1.816-0.934,1.816-1.96c0-1.025-0.865-1.96-1.816-1.96h-1.455
				h-13.09h-0.096h-0.127c-0.496,0-0.898-0.402-0.898-0.899c0-0.219,0.088-0.411,0.217-0.567c0.164-0.197,0.404-0.332,0.682-0.332
				h0.127h13.186c0.949,0,1.814-0.935,1.814-1.96c0-1-0.812-1.814-1.814-1.814H47.797h-1.082c-0.029,0-0.053-0.016-0.08-0.018
				c-0.062-0.006-0.123-0.018-0.182-0.036c-0.053-0.017-0.105-0.035-0.154-0.062c-0.051-0.027-0.096-0.06-0.141-0.095
				c-0.047-0.038-0.09-0.08-0.129-0.128c-0.018-0.022-0.043-0.035-0.061-0.059c-0.016-0.025-0.018-0.053-0.031-0.078
				c-0.029-0.053-0.051-0.107-0.068-0.165c-0.018-0.055-0.031-0.107-0.037-0.165c-0.004-0.068-0.004-0.122,0-0.175
				c0.006-0.064,0.02-0.125,0.037-0.184c0.018-0.052,0.035-0.103,0.061-0.151c0.027-0.051,0.061-0.098,0.096-0.142
				c0.039-0.047,0.08-0.091,0.129-0.13c0.021-0.019,0.035-0.043,0.057-0.059l3.85-2.599c0.938-0.612,1.594-1.705,1.725-2.86
				c0.086-0.765-0.076-1.424-0.445-1.808c-0.164-0.17-0.318-0.335-1.096,0.072c-0.006,0.003-2.811,1.457-6.92,3.661l-0.516,0.275
				c-2.516,1.346-5.494,2.947-7.568,5.241c-0.644,0.712-1.206,1.485-1.633,2.345c-0.151,0.306-0.463,0.499-0.806,0.499H22.516
				c0.43,4.255-3.691,8.304-2.017,12.049c0.153-0.12,0.337-0.203,0.547-0.203H32.555z"/>
			<path fill="#FFFFFF" d="M49.971,42.268c-0.936-0.157-1.846,0.009-2.635,0.402c-0.182-2.467-2.018-4.586-4.566-5.016
				c-2.627-0.442-5.131,1.056-6.047,3.452c-0.794-0.845-1.845-1.46-3.077-1.667c-2.995-0.505-5.832,1.514-6.337,4.509
				c-0.505,2.996,1.515,5.834,4.51,6.339c2.627,0.442,5.13-1.058,6.048-3.454c0.793,0.845,1.844,1.461,3.076,1.668
				c1.506,0.254,2.973-0.131,4.121-0.957c0.396,1.623,1.721,2.937,3.473,3.232c2.35,0.396,4.576-1.188,4.971-3.537
				C53.904,44.89,52.32,42.664,49.971,42.268z"/>
			<circle fill="#FFFFFF" cx="49.392" cy="53.395" r="4.763"/>
			<path fill="#FFFFFF" d="M52.49,51.266c0-1.474-0.955-2.761-2.24-3.22c0.521-0.605,0.848-1.396,0.848-2.254
				c0-1.799-1.465-3.262-3.262-3.262H29.984l1.878-1.268c1.258-0.821,3.009-2.29,3.183-3.835c0.135-1.186-0.173-2.265-0.844-2.961
				c-0.741-0.767-1.674-0.84-2.849-0.225c-0.027,0.014-2.741,1.42-6.641,3.514l-0.489,0.262c-3.241,1.731-7.25,3.874-9.264,7.559
				h-2.428c-0.366,0-0.663,0.299-0.663,0.663L11.771,59.3c0,0.366,0.297,0.665,0.663,0.665h2.292
				c0.712,1.255,3.148,4.758,8.088,4.758h6.982h0.76h11.406c1.859,0,3.262-1.302,3.262-3.026c0-0.669-0.18-1.255-0.496-1.731h2.857
				c1.799,0,3.262-1.467,3.262-3.267c0-0.863-0.268-1.602-0.715-2.172C51.477,54.106,52.49,52.784,52.49,51.266z"/>
		</g>
	</g>
</g>
<path fill="#1D2C4C" d="M31.544,1h-7.229c-5.024,1.926-9.553,4.844-13.352,8.518h20.124c1.698,0,3.075,1.377,3.075,3.076v4.014
	h8.518v-4.47C42.682,5.986,37.695,1,31.544,1z"/>
<g>
	<path fill="#1D2C4C" d="M15.211,59.447c0.008,0.019,0.832,1.733,2.7,3.01c1.11,0.759,2.589,1.363,4.487,1.363h3.09h4.205h0.712
		h0.082h11.915c0.873,0,1.816-0.491,1.816-1.569c0-1.02-0.664-1.604-1.816-1.604H33.63c-0.211,0-0.396-0.084-0.549-0.204
		c-0.208-0.165-0.351-0.409-0.351-0.694c0-0.498,0.402-0.899,0.899-0.899h8.098h0.674c0.148,0,0.285,0.021,0.426,0.034
		c0.059-0.012,0.115-0.034,0.178-0.034h5.271c1,0,1.814-0.817,1.814-1.82c0-0.884-0.477-1.916-1.814-1.916H36.43h-0.473h-0.804
		c-0.498,0-0.899-0.402-0.899-0.899c0-0.495,0.401-0.898,0.899-0.898h0.709h0.095h12.321h1.715c0.951,0,1.816-0.935,1.816-1.96
		s-0.865-1.96-1.816-1.96h-1.455h-13.09h-0.095h-0.127c-0.497,0-0.899-0.403-0.899-0.899c0-0.218,0.088-0.412,0.217-0.566
		c0.166-0.199,0.404-0.332,0.683-0.332h0.127h13.185c0.949,0,1.816-0.936,1.816-1.961c0-1-0.816-1.815-1.816-1.815H29.604h-1.081
		c-0.029,0-0.053-0.014-0.082-0.017c-0.062-0.007-0.122-0.018-0.18-0.036c-0.053-0.017-0.104-0.036-0.154-0.062
		c-0.05-0.026-0.096-0.06-0.141-0.094c-0.046-0.038-0.09-0.081-0.129-0.128c-0.018-0.022-0.043-0.035-0.06-0.059
		c-0.016-0.025-0.019-0.053-0.033-0.078c-0.028-0.053-0.051-0.108-0.068-0.165c-0.017-0.056-0.03-0.108-0.036-0.165
		c-0.005-0.069-0.005-0.122,0-0.175c0.005-0.063,0.019-0.125,0.037-0.184c0.016-0.053,0.036-0.104,0.062-0.152
		c0.027-0.051,0.06-0.097,0.095-0.142c0.038-0.047,0.08-0.09,0.128-0.129c0.022-0.02,0.035-0.044,0.059-0.06l3.849-2.598
		c0.937-0.613,1.594-1.705,1.725-2.86c0.086-0.765-0.076-1.424-0.446-1.808c-0.164-0.17-0.318-0.335-1.095,0.072
		c-0.007,0.003-2.812,1.455-6.92,3.66l-0.516,0.276c-2.516,1.344-5.494,2.946-7.568,5.24c-0.643,0.712-1.206,1.484-1.632,2.344
		c-0.152,0.307-0.463,0.501-0.805,0.501H0c1.032,4.261,2.756,8.249,5.047,11.845h9.317C14.744,58.85,15.084,59.089,15.211,59.447z"
		/>
</g>
<circle fill="#A1A7B4" cx="20.25" cy="33.697" r="4.116"/>
<circle fill="#A1A7B4" cx="50.672" cy="65.192" r="2.996"/>
</svg>
