<?xml version="1.0" encoding="utf-8"?>
<!-- Generator: Adobe Illustrator 15.0.0, SVG Export Plug-In . SVG Version: 6.00 Build 0)  -->
<!DOCTYPE svg PUBLIC "-//W3C//DTD SVG 1.1//EN" "http://www.w3.org/Graphics/SVG/1.1/DTD/svg11.dtd">
<svg version="1.1" id="Layer_1" xmlns="http://www.w3.org/2000/svg" xmlns:xlink="http://www.w3.org/1999/xlink" x="0px" y="0px"
	 width="70px" height="70px" viewBox="0 0 70 70" enable-background="new 0 0 70 70" xml:space="preserve">
<g>
	<path fill="#1D2C4C" d="M54.002,33.212h-7.553c-1.887,0-3.417-1.53-3.417-3.416V5.012c0-1.887,1.53-3.417,3.417-3.417h7.553
		c1.886,0,3.416,1.53,3.416,3.417v24.784C57.418,31.682,55.888,33.212,54.002,33.212z"/>
	<path fill="#FFFFFF" d="M52.407,27.127h-4.364l1.25-4.335c-0.768-0.354-1.302-1.127-1.302-2.027c0-1.234,1-2.234,2.233-2.234
		c1.234,0,2.235,1,2.235,2.234c0,0.9-0.535,1.673-1.302,2.027L52.407,27.127z"/>
	<g>
		<path fill="#1D2C4C" d="M67.629,7.867H52.974c-0.616-0.856-1.613-1.418-2.749-1.418c-1.873,0-3.394,1.52-3.394,3.394
			s1.521,3.395,3.394,3.395c1.136,0,2.134-0.563,2.751-1.418h14.653c1.092,0,1.977-0.886,1.977-1.977
			C69.605,8.751,68.721,7.867,67.629,7.867z"/>
		<path fill="#FFFFFF" d="M50.225,13.633c-2.09,0-3.788-1.7-3.788-3.79c0-2.089,1.698-3.789,3.788-3.789
			c1.141,0,2.228,0.526,2.945,1.418h14.459C68.937,7.472,70,8.536,70,9.843c0,1.308-1.063,2.372-2.371,2.372H53.17
			C52.452,13.106,51.365,13.633,50.225,13.633z M50.225,6.845c-1.653,0-2.998,1.345-2.998,2.999c0,1.654,1.345,2.999,2.998,2.999
			c0.956,0,1.863-0.468,2.43-1.254l0.118-0.164h14.856c0.872,0,1.581-0.709,1.581-1.581c0-0.872-0.709-1.581-1.581-1.581H52.771
			l-0.117-0.165C52.089,7.313,51.181,6.845,50.225,6.845z"/>
	</g>
</g>
<path fill="#1D2C4C" d="M46.235,38.377L16.884,15.028c-0.668-0.532-1.546-0.825-2.475-0.825H0v2.537h8.087v16.854H0v26.45
	c0.854,1.076,1.757,2.109,2.707,3.099h52.118v-8.409h-3.989V41.095h7.51v-2.537H46.825C46.6,38.558,46.379,38.491,46.235,38.377z
	 M21.375,40.641h-8.087v-7.047h-2.311V16.74h3.433c0.226,0,0.446,0.068,0.59,0.183l6.375,5.071V40.641z M34.661,47.687h-8.087
	v-7.046h-2.311V24.292l10.398,8.271V47.687z M47.948,54.733h-8.087v-7.047h-2.312V34.861l6.803,5.411
	c0.668,0.53,1.546,0.822,2.474,0.822h1.123V54.733z"/>
<circle fill="#FFFFFF" cx="35.409" cy="59.003" r="10.997"/>
<g>
	
		<rect x="34.458" y="50.978" transform="matrix(0.7071 0.7071 -0.7071 0.7071 52.0923 -7.756)" fill="#DC1E40" width="1.902" height="16.049"/>
	<path fill="#DC1E40" d="M35.409,67.66c-4.773,0-8.657-3.884-8.657-8.657s3.884-8.657,8.657-8.657c4.773,0,8.657,3.884,8.657,8.657
		S40.182,67.66,35.409,67.66z M35.409,52.248c-3.724,0-6.754,3.03-6.754,6.755s3.03,6.755,6.754,6.755s6.754-3.03,6.754-6.755
		S39.133,52.248,35.409,52.248z"/>
</g>
</svg>
