<?xml version="1.0" encoding="utf-8"?>
<!-- Generator: Adobe Illustrator 15.0.0, SVG Export Plug-In . SVG Version: 6.00 Build 0)  -->
<!DOCTYPE svg PUBLIC "-//W3C//DTD SVG 1.1//EN" "http://www.w3.org/Graphics/SVG/1.1/DTD/svg11.dtd">
<svg version="1.1" id="Layer_1" xmlns="http://www.w3.org/2000/svg" xmlns:xlink="http://www.w3.org/1999/xlink" x="0px" y="0px"
	 width="70px" height="70px" viewBox="0 0 70 70" enable-background="new 0 0 70 70" xml:space="preserve">
<g>
	<path fill="#1D2C4C" d="M25.828,19.512c-0.057,0.4-0.111,0.828-0.161,1.278c1.121,0.244,2.092,0.566,2.832,0.863
		c0.111,0.045,0.208,0.111,0.317,0.164c0.008-0.231,0.012-0.466,0.027-0.679c0.009-0.135,0.024-0.252,0.036-0.38
		c0.025-0.257,0.05-0.507,0.083-0.734c0.018-0.129,0.039-0.247,0.06-0.366c0.034-0.197,0.069-0.384,0.108-0.553
		c0.025-0.107,0.048-0.206,0.072-0.302c0.042-0.158,0.084-0.297,0.127-0.428c0.025-0.076,0.046-0.152,0.072-0.218
		c0.048-0.129,0.095-0.235,0.14-0.332c0.02-0.039,0.038-0.086,0.054-0.119c0.063-0.117,0.122-0.207,0.171-0.263
		c0.057-0.046,0.09-0.075,0.116-0.075c0.043,0.016,0.067,0.055,0.067,0.147c0,0.174,0,2.189,0,5.052
		c0.109,0.096,0.208,0.201,0.306,0.308c0.664-2.225,2.508-3.73,4.795-3.73c2.261,0,4.092,1.459,4.777,3.634
		c0.072-0.073,0.146-0.142,0.222-0.211c0-2.863,0-4.878,0-5.052c0-0.092,0.025-0.131,0.063-0.137c0.03-0.01,0.064,0.018,0.1,0.051
		c0.072,0.069,0.129,0.159,0.192,0.276c0.018,0.032,0.036,0.081,0.054,0.119c0.046,0.097,0.093,0.203,0.141,0.332
		c0.024,0.065,0.049,0.142,0.072,0.218c0.044,0.131,0.084,0.272,0.126,0.429c0.025,0.095,0.049,0.194,0.073,0.299
		c0.038,0.171,0.074,0.358,0.108,0.555c0.021,0.119,0.041,0.237,0.061,0.366c0.031,0.227,0.057,0.477,0.082,0.734
		c0.011,0.128,0.026,0.245,0.035,0.38c0.016,0.213,0.02,0.448,0.029,0.679c0.105-0.053,0.204-0.119,0.316-0.164
		c0.739-0.297,1.709-0.619,2.831-0.863c-0.049-0.451-0.103-0.878-0.162-1.278c-0.455-0.596-0.835-1.313-1.105-2.158
		c-0.74-0.593-1.084-1.642-0.983-2.482c0.048-0.396,0.218-0.722,0.444-0.999c-0.422-0.595-1.008-1.05-1.688-1.323
		c-1.256-0.505-3.376-1.168-5.839-1.168c-2.462,0-4.582,0.663-5.837,1.168c-0.684,0.275-1.271,0.732-1.688,1.323
		c0.226,0.277,0.395,0.603,0.443,0.999c0.101,0.84-0.242,1.889-0.984,2.482C26.663,18.199,26.284,18.916,25.828,19.512z"/>
	<path fill="#1D2C4C" d="M31.363,6.556c0.063,0.235,0.138,0.468,0.225,0.694c0.172,0.453,0.389,0.883,0.65,1.266
		c0.261,0.383,0.566,0.72,0.919,0.985c0.527,0.398,1.158,0.637,1.894,0.637c1.977,0,3.19-1.721,3.697-3.612
		c0.557-0.23,0.899-1.041,0.83-1.645c-0.049-0.392-0.261-0.604-0.563-0.703C38.895,1.846,37.36,0,35.051,0
		c-2.295,0-3.829,1.829-3.962,4.145c-0.354,0.081-0.613,0.301-0.666,0.736C30.346,5.525,30.743,6.396,31.363,6.556z"/>
	<path fill="#1D2C4C" d="M24.776,49.046l-0.058-0.255c-0.041-0.313-0.415-4.247-0.281-6.372c0.269-3.488,0.833-6.224,1.68-8.126
		c0.276-0.62,0.685-1.158,1.185-1.604c0-0.44,0-0.864,0-1.26c0-0.391,0-0.755,0-1.097c0-1.562,0-2.573,0-2.695
		c0-0.092,0.025-0.13,0.063-0.136c0.028-0.01,0.063,0.018,0.099,0.051c0.07,0.069,0.129,0.159,0.19,0.276
		c0.018,0.033,0.038,0.081,0.056,0.118c0.046,0.098,0.092,0.203,0.14,0.333c0.024,0.064,0.048,0.144,0.073,0.218
		c0.043,0.13,0.085,0.27,0.126,0.428c0.025,0.095,0.049,0.197,0.074,0.3c0.039,0.171,0.073,0.358,0.108,0.555
		c0.016,0.095,0.033,0.189,0.048,0.29c0.044,0.303,0.07,0.553,0.095,0.811c0.01,0.12,0.025,0.227,0.034,0.353
		c0.017,0.24,0.021,0.475,0.028,0.706c0.108-0.052,0.207-0.118,0.317-0.164c0.03-0.012,0.071-0.024,0.101-0.036
		c0.33-0.13,0.69-0.264,1.096-0.395c0.495-0.159,1.05-0.305,1.644-0.435c-0.048-0.452-0.101-0.88-0.159-1.283
		c-0.008-0.054-0.016-0.099-0.024-0.151c-0.388-0.542-0.717-1.175-0.96-1.908c-0.191-0.131-0.355-0.297-0.501-0.479
		c-0.469-0.592-0.698-1.397-0.615-2.096c0.048-0.395,0.223-0.715,0.448-0.991c-0.264-0.374-0.599-0.691-0.98-0.947
		c-0.023-0.015-0.043-0.036-0.067-0.051c-0.203-0.13-0.419-0.241-0.646-0.333c-0.627-0.252-1.47-0.543-2.465-0.771
		c-0.397-0.087-0.767-0.145-1.137-0.204c-0.705-0.109-1.442-0.192-2.235-0.192c-1.231,0-2.377,0.166-3.372,0.396
		c-0.994,0.228-1.839,0.52-2.466,0.771c-0.227,0.092-0.443,0.203-0.646,0.333c-0.408,0.261-0.763,0.597-1.042,0.991
		c0.227,0.277,0.396,0.604,0.445,1c0.1,0.84-0.244,1.889-0.984,2.482c-0.273,0.855-0.658,1.579-1.121,2.176
		c-0.055,0.397-0.108,0.814-0.155,1.258c1.125,0.245,2.099,0.568,2.839,0.865c0.113,0.045,0.21,0.112,0.317,0.164
		c0.008-0.231,0.014-0.466,0.028-0.679c0.009-0.135,0.024-0.253,0.037-0.381c0.023-0.257,0.048-0.507,0.081-0.733
		c0.019-0.131,0.041-0.246,0.06-0.369c0.035-0.195,0.07-0.379,0.108-0.55c0.025-0.106,0.048-0.208,0.074-0.305
		c0.042-0.156,0.083-0.295,0.126-0.426c0.024-0.076,0.048-0.152,0.072-0.218c0.048-0.13,0.095-0.233,0.14-0.331
		c0.02-0.04,0.038-0.087,0.056-0.122c0.062-0.116,0.12-0.206,0.171-0.261c0.055-0.046,0.09-0.075,0.115-0.075
		c0.042,0.016,0.068,0.055,0.068,0.146c0,0.174,0,2.189,0,5.052c0.499,0.446,0.909,0.984,1.184,1.604
		c0.875,1.971,1.442,4.708,1.681,8.134c0.147,2.115-0.242,6.056-0.259,6.22c-0.023,0.145-0.083,0.399-0.083,0.399
		c-0.218,0.953-0.581,2.549-2.486,2.625c-0.037,2.312-0.037,3.827-0.037,3.827c0,0.621,0.251,1.183,0.658,1.59
		c0.407,0.407,0.967,0.658,1.587,0.658c0.465,0,0.898-0.142,1.256-0.384c0.598-0.403,0.992-1.087,0.992-1.864V41.084
		c0-0.079,0.015-0.15,0.043-0.218c0.084-0.202,0.282-0.344,0.513-0.341c0.309,0.001,0.558,0.249,0.558,0.557
		c0,0.002,0,14.416,0,14.416c0,0.466,0.141,0.898,0.383,1.258c0.16,0.239,0.368,0.444,0.607,0.606
		c0.119,0.079,0.247,0.15,0.382,0.207c0.269,0.113,0.564,0.177,0.874,0.177c0.466,0,0.899-0.142,1.256-0.384
		c0.598-0.403,0.991-1.087,0.991-1.864c0,0,0-1.515,0-3.827C25.357,51.595,24.994,49.999,24.776,49.046z"/>
	<path fill="#1D2C4C" d="M18.613,16.679c0.064,0.234,0.14,0.467,0.226,0.693c0.602,1.585,1.745,2.888,3.462,2.888
		c1.05,0,1.877-0.493,2.505-1.232c0.259-0.304,0.49-0.645,0.679-1.019c0.217-0.427,0.386-0.889,0.514-1.362
		c0.22-0.092,0.395-0.287,0.538-0.512c0.165-0.266,0.262-0.571,0.281-0.871c0.004-0.088,0.021-0.179,0.01-0.261
		c-0.047-0.391-0.261-0.604-0.562-0.703c-0.007-0.144-0.037-0.278-0.055-0.418c-0.273-2.128-1.743-3.761-3.91-3.761
		c-2.296,0-3.83,1.829-3.961,4.146c-0.356,0.082-0.613,0.3-0.666,0.736C17.596,15.646,17.994,16.518,18.613,16.679z"/>
	<path fill="#1D2C4C" d="M50.275,49.046l-0.059-0.255c-0.041-0.309-0.43-4.249-0.282-6.364c0.24-3.428,0.805-6.163,1.681-8.134
		c0.275-0.62,0.686-1.158,1.186-1.604c0-2.863,0-4.878,0-5.052c0-0.092,0.023-0.13,0.063-0.136c0.028-0.01,0.062,0.018,0.099,0.051
		c0.07,0.069,0.129,0.159,0.191,0.276c0.018,0.033,0.035,0.08,0.054,0.116c0.046,0.099,0.093,0.204,0.141,0.334
		c0.025,0.065,0.049,0.142,0.072,0.216c0.043,0.132,0.086,0.272,0.128,0.431c0.023,0.095,0.048,0.194,0.071,0.299
		c0.039,0.171,0.074,0.358,0.108,0.555c0.021,0.121,0.043,0.236,0.061,0.367c0.033,0.226,0.059,0.476,0.082,0.733
		c0.013,0.128,0.027,0.246,0.036,0.381c0.016,0.213,0.021,0.448,0.027,0.679c0.108-0.052,0.206-0.118,0.317-0.164
		c0.741-0.297,1.715-0.62,2.841-0.865c-0.047-0.443-0.1-0.861-0.156-1.258c-0.461-0.597-0.847-1.321-1.119-2.176
		c-0.742-0.593-1.085-1.642-0.984-2.482c0.048-0.396,0.216-0.722,0.443-1c-0.28-0.394-0.633-0.73-1.042-0.991
		c-0.204-0.13-0.42-0.241-0.647-0.333c-0.312-0.126-0.682-0.261-1.094-0.395c-0.828-0.266-1.839-0.521-2.969-0.661
		c-0.563-0.071-1.158-0.112-1.774-0.112c-0.794,0-1.531,0.083-2.236,0.192c-0.368,0.059-0.741,0.116-1.077,0.193
		c-1.019,0.229-1.885,0.525-2.525,0.782c-0.226,0.092-0.443,0.203-0.646,0.333c-0.023,0.015-0.043,0.036-0.066,0.051
		c-0.38,0.254-0.714,0.568-0.976,0.94c0.226,0.276,0.395,0.604,0.443,1.002c0.079,0.679-0.144,1.479-0.617,2.08
		c-0.11,0.141-0.226,0.284-0.366,0.398c-0.272,0.854-0.658,1.579-1.12,2.176c-0.056,0.397-0.109,0.814-0.155,1.258
		c0.592,0.129,1.147,0.275,1.642,0.435c0.407,0.13,0.768,0.264,1.098,0.395c0.029,0.012,0.071,0.024,0.101,0.036
		c0.112,0.045,0.21,0.112,0.316,0.164c0.008-0.231,0.014-0.466,0.028-0.679c0.009-0.153,0.024-0.26,0.036-0.38
		c0.024-0.258,0.05-0.508,0.082-0.734c0.028-0.177,0.043-0.272,0.06-0.366c0.034-0.198,0.07-0.384,0.109-0.556
		c0.023-0.103,0.047-0.206,0.072-0.3c0.042-0.158,0.082-0.297,0.126-0.428c0.024-0.074,0.048-0.153,0.072-0.218
		c0.048-0.13,0.094-0.235,0.142-0.331c0.018-0.04,0.036-0.087,0.054-0.12c0.062-0.119,0.12-0.208,0.171-0.263
		c0.056-0.046,0.091-0.075,0.116-0.075c0.042,0.016,0.067,0.055,0.067,0.146c0,0.122,0,1.132,0,2.695c0,0.342,0,0.706,0,1.097
		c0,0.396,0,0.82,0,1.26c0.499,0.446,0.909,0.984,1.184,1.604c0.847,1.903,1.412,4.638,1.682,8.141
		c0.133,2.11-0.243,6.044-0.259,6.211c-0.024,0.146-0.083,0.401-0.083,0.401c-0.218,0.953-0.582,2.549-2.485,2.625
		C42.7,53.983,42.7,55.498,42.7,55.498c0,1.241,1.005,2.248,2.248,2.248c1.238,0,2.244-1.007,2.244-2.248V41.084
		c0.054-0.346,0.275-0.558,0.558-0.559c0.049,0,0.088,0.015,0.128,0.023c0.03,0.008,0.063,0.008,0.09,0.02
		c0.049,0.02,0.086,0.053,0.126,0.086c0.095,0.078,0.128,0.132,0.155,0.189c0.042,0.089,0.057,0.161,0.057,0.238
		c0,0.002,0,14.416,0,14.416c0,0.466,0.144,0.898,0.385,1.258c0.163,0.239,0.368,0.444,0.607,0.606
		c0.12,0.079,0.246,0.15,0.381,0.207c0.27,0.113,0.565,0.177,0.874,0.177c1.241,0,2.248-1.007,2.248-2.248c0,0,0-1.515,0-3.827
		C50.856,51.595,50.493,49.999,50.275,49.046z"/>
	<path fill="#1D2C4C" d="M43.184,15.264c0.017,0.3,0.114,0.605,0.281,0.871c0.142,0.225,0.315,0.42,0.538,0.512
		c0.126,0.473,0.297,0.935,0.513,1.362c0.189,0.374,0.42,0.714,0.679,1.019c0.627,0.739,1.455,1.232,2.505,1.232
		c1.473,0,2.523-0.957,3.173-2.229c0.216-0.423,0.387-0.882,0.515-1.352c0.311-0.082,0.565-0.338,0.732-0.657
		c0.166-0.319,0.246-0.697,0.208-1.02c-0.052-0.436-0.311-0.654-0.666-0.736c-0.133-2.316-1.667-4.146-3.962-4.146
		c-2.167,0-3.637,1.633-3.91,3.761c-0.019,0.14-0.047,0.274-0.054,0.418c-0.303,0.098-0.516,0.312-0.563,0.703
		C43.163,15.084,43.178,15.175,43.184,15.264z"/>
	<path fill="#1D2C4C" d="M43.927,49.648c0.108-0.295,0.182-0.646,0.269-1.018c0.006-0.032,0.013-0.061,0.021-0.092
		c0,0,0.074-0.764,0.146-1.793c0.02-0.295,0.041-0.611,0.059-0.938c0.064-1.142,0.106-2.409,0.052-3.306
		c-0.238-3.068-0.684-5.164-1.14-6.573c-0.151-0.47-0.305-0.864-0.45-1.192c-0.049-0.114-0.121-0.213-0.182-0.32
		c-0.06-0.104-0.108-0.213-0.177-0.311c-0.264-0.369-0.595-0.679-0.973-0.932c-0.128-0.085-0.266-0.154-0.403-0.226
		c-0.103-0.052-0.2-0.115-0.309-0.159c-0.227-0.09-0.51-0.188-0.789-0.284c-0.51-0.177-1.078-0.35-1.737-0.5
		c-0.338-0.077-0.709-0.134-1.078-0.19c-0.534-0.083-1.091-0.134-1.677-0.158c-0.189-0.007-0.363-0.035-0.558-0.035
		c-0.192,0-0.367,0.027-0.557,0.035c-0.584,0.024-1.144,0.075-1.675,0.158c-0.369,0.057-0.742,0.114-1.079,0.19
		c-0.661,0.15-1.229,0.323-1.74,0.5c-0.277,0.096-0.561,0.194-0.787,0.284c-0.108,0.044-0.206,0.107-0.31,0.159
		c-0.138,0.071-0.276,0.14-0.402,0.226c-0.477,0.319-0.864,0.744-1.149,1.242c-0.062,0.107-0.132,0.206-0.183,0.32
		c-0.583,1.312-1.273,3.673-1.588,7.765c-0.057,0.896-0.015,2.164,0.049,3.306c0.02,0.326,0.039,0.643,0.061,0.938
		c0.072,1.029,0.146,1.793,0.146,1.793c0.064,0.271,0.119,0.532,0.183,0.771c0.191,0.712,0.466,1.228,1.332,1.265
		c0.058,0.001,0.101-0.006,0.15-0.007c0.253-0.008,0.475-0.051,0.66-0.134c0.144-0.076,0.208-0.153,0.287-0.218
		c0.072-0.061,0.162-0.103,0.221-0.176c0.139-0.194,0.231-0.379,0.29-0.584c0.063-0.233,0.093-0.464,0.093-0.702
		c0,0-0.115-1.845-0.172-3.941c-0.02-0.699-0.033-1.426-0.033-2.121c0-0.474,0.018-0.905,0.046-1.311
		c0.004-0.068,0.007-0.11,0.01-0.153c0.007-0.082,0.018-0.146,0.025-0.228c0.025-0.257,0.05-0.507,0.083-0.733
		c0.026-0.177,0.043-0.271,0.06-0.366c0.034-0.197,0.069-0.384,0.108-0.553c0.025-0.107,0.048-0.206,0.072-0.303
		c0.042-0.157,0.084-0.297,0.126-0.428c0.026-0.074,0.047-0.151,0.073-0.218c0.048-0.13,0.095-0.235,0.142-0.333
		c0.018-0.038,0.036-0.084,0.052-0.117c0.063-0.119,0.122-0.208,0.173-0.264c0.054-0.046,0.088-0.074,0.114-0.074
		c0.042,0.016,0.067,0.056,0.067,0.146c0,0.959,0,1.861,0,2.695c0,0.383,0,0.748,0,1.097c0,2.311,0,3.829,0,3.829
		c0,0.789,0,1.613,0,2.459c0,7.979,0,17.782,0,17.782c0,0.311,0.063,0.606,0.178,0.874c0.083,0.195,0.2,0.371,0.331,0.533
		c0.092,0.111,0.19,0.213,0.3,0.305c0.391,0.33,0.889,0.535,1.439,0.535c0.62,0,1.183-0.251,1.589-0.658
		c0.203-0.202,0.367-0.446,0.48-0.715c0.115-0.268,0.176-0.563,0.176-0.874V51.203c0-0.229,0.141-0.428,0.341-0.513
		c0.066-0.028,0.14-0.044,0.216-0.044c0.079,0,0.151,0.016,0.218,0.044c0.2,0.085,0.34,0.284,0.34,0.513V65.62
		c0,0.311,0.063,0.606,0.177,0.874c0.113,0.269,0.278,0.513,0.481,0.715c0.406,0.407,0.968,0.658,1.589,0.658
		c0.62,0,1.182-0.251,1.587-0.658c0.204-0.202,0.368-0.446,0.481-0.715c0.114-0.268,0.177-0.563,0.177-0.874c0,0,0-9.803,0-17.782
		c0-0.846,0-1.67,0-2.459c0,0,0-1.519,0-3.829c0-0.349,0-0.714,0-1.097c0-0.834,0-1.736,0-2.695c0-0.091,0.025-0.131,0.063-0.137
		c0.03-0.01,0.064,0.019,0.101,0.053c0.071,0.067,0.128,0.156,0.191,0.275c0.018,0.033,0.036,0.079,0.054,0.117
		c0.046,0.098,0.093,0.202,0.141,0.333c0.024,0.066,0.049,0.144,0.072,0.216c0.044,0.133,0.084,0.272,0.126,0.43
		c0.025,0.097,0.049,0.195,0.073,0.301c0.038,0.171,0.074,0.357,0.108,0.555c0.018,0.095,0.032,0.189,0.048,0.29
		c0.044,0.303,0.069,0.553,0.095,0.811c0.007,0.08,0.019,0.145,0.025,0.227c0.004,0.043,0.008,0.085,0.01,0.127
		c0.029,0.432,0.047,0.863,0.047,1.337c0,2.782-0.206,6.062-0.206,6.062c0,0.238,0.03,0.469,0.089,0.681
		c0.063,0.227,0.155,0.411,0.273,0.572c0.079,0.106,0.171,0.148,0.243,0.209c0.078,0.064,0.144,0.142,0.237,0.19
		c0.234,0.11,0.457,0.153,0.708,0.161c0.049,0.001,0.093,0.008,0.146,0.007C43.422,50.542,43.732,50.181,43.927,49.648z"/>
	<path fill="#1D2C4C" d="M35.051,30.381c1.041,0,1.864-0.486,2.491-1.214c0.562-0.653,0.968-1.504,1.206-2.399
		c0.216-0.088,0.388-0.279,0.527-0.497c0.173-0.269,0.272-0.584,0.292-0.892c0.004-0.086,0.021-0.174,0.011-0.253
		c-0.049-0.393-0.261-0.606-0.563-0.706c-0.007-0.142-0.035-0.277-0.054-0.417c-0.273-2.126-1.742-3.76-3.91-3.76
		c-2.213,0-3.706,1.707-3.929,3.905c-0.009,0.081-0.027,0.157-0.033,0.24c-0.354,0.083-0.613,0.301-0.666,0.738
		c-0.009,0.083,0.009,0.174,0.014,0.261c0.019,0.306,0.116,0.615,0.288,0.881c0.164,0.252,0.374,0.463,0.638,0.532
		c0.063,0.234,0.138,0.467,0.225,0.692c0.172,0.454,0.389,0.884,0.65,1.266c0.059,0.087,0.129,0.164,0.193,0.245
		c0.218,0.277,0.454,0.535,0.726,0.741C33.685,30.143,34.315,30.381,35.051,30.381z"/>
	<path fill="#1D2C4C" d="M18.534,49.31c0.063-0.238,0.119-0.499,0.183-0.771c0,0,0.024-0.249,0.06-0.655
		c0.016-0.204,0.038-0.446,0.057-0.715c0.021-0.271,0.043-0.568,0.063-0.881c0.021-0.313,0.041-0.643,0.057-0.976
		c0.048-1.001,0.071-2.042,0.018-2.81c-0.287-4.093-1.006-6.453-1.589-7.765c-0.05-0.114-0.122-0.213-0.182-0.32
		c-0.287-0.498-0.675-0.923-1.149-1.242c-0.224-0.15-0.46-0.282-0.712-0.385c-0.64-0.256-1.508-0.553-2.527-0.784
		c-0.338-0.077-0.708-0.134-1.078-0.19c-0.705-0.11-1.441-0.193-2.234-0.193c-2.463,0-4.582,0.663-5.837,1.167
		c-0.909,0.366-1.646,1.053-2.044,1.947c-0.583,1.312-1.303,3.672-1.588,7.765C-0.023,43.271,0,44.312,0.05,45.312
		c0.017,0.333,0.036,0.662,0.055,0.976c0.021,0.312,0.042,0.61,0.063,0.881c0.021,0.269,0.041,0.511,0.059,0.715
		c0.035,0.406,0.061,0.655,0.061,0.655c0.064,0.271,0.119,0.532,0.183,0.771c0.19,0.715,0.467,1.23,1.338,1.265
		c0.051,0.001,0.095-0.006,0.144-0.007c0.252-0.008,0.475-0.051,0.66-0.134C2.844,50.314,3,50.191,3.12,50.04
		c0.14-0.194,0.231-0.379,0.291-0.584c0.062-0.235,0.093-0.464,0.093-0.702c0,0-0.206-3.28-0.206-6.062
		c0-0.474,0.018-0.905,0.046-1.311C3.353,41.246,3.368,41.129,3.38,41c0.024-0.257,0.049-0.507,0.083-0.733
		c0.018-0.131,0.039-0.246,0.06-0.368c0.035-0.195,0.069-0.38,0.108-0.551c0.024-0.105,0.048-0.206,0.074-0.303
		c0.04-0.158,0.082-0.299,0.125-0.431c0.024-0.071,0.047-0.148,0.071-0.214c0.05-0.131,0.097-0.236,0.143-0.334
		c0.018-0.04,0.036-0.084,0.052-0.117c0.063-0.119,0.122-0.208,0.173-0.264c0.054-0.046,0.089-0.074,0.114-0.074
		c0.042,0.016,0.068,0.056,0.068,0.146c0,0.665,0,27.862,0,27.862c0,0.311,0.062,0.606,0.177,0.874
		c0.113,0.269,0.278,0.513,0.481,0.715c0.407,0.407,0.969,0.658,1.589,0.658c0.62,0,1.182-0.251,1.588-0.658
		c0.204-0.202,0.368-0.446,0.482-0.715c0.114-0.268,0.176-0.563,0.176-0.874V51.203c0-0.075,0.016-0.148,0.044-0.216
		c0.085-0.201,0.282-0.344,0.513-0.341c0.308,0.001,0.558,0.249,0.558,0.557V65.62c0,0.311,0.063,0.606,0.175,0.874
		c0.114,0.269,0.279,0.513,0.482,0.715c0.407,0.407,0.967,0.658,1.588,0.658c0.622,0,1.182-0.251,1.589-0.658
		c0.203-0.202,0.368-0.446,0.482-0.715c0.113-0.268,0.176-0.563,0.176-0.874c0,0,0-16.443,0-24.07c0-0.392,0-0.756,0-1.097
		c0-1.562,0-2.573,0-2.695c0-0.091,0.026-0.131,0.063-0.137c0.03-0.01,0.064,0.019,0.101,0.053c0.068,0.067,0.127,0.156,0.191,0.275
		c0.016,0.031,0.036,0.08,0.054,0.117c0.046,0.098,0.093,0.202,0.141,0.333c0.024,0.064,0.048,0.145,0.072,0.216
		c0.044,0.133,0.084,0.272,0.126,0.43c0.026,0.095,0.048,0.197,0.072,0.301c0.039,0.171,0.075,0.357,0.11,0.555
		c0.017,0.095,0.031,0.189,0.046,0.29c0.045,0.303,0.07,0.553,0.095,0.811c0.012,0.121,0.027,0.227,0.036,0.354
		c0.029,0.432,0.047,0.863,0.047,1.337c0,2.782-0.206,6.062-0.206,6.062c0,0.238,0.03,0.469,0.089,0.681
		c0.063,0.227,0.155,0.411,0.275,0.572c0.078,0.106,0.169,0.148,0.242,0.209c0.077,0.064,0.143,0.142,0.237,0.19
		c0.234,0.11,0.457,0.153,0.708,0.161c0.049,0.001,0.093,0.008,0.146,0.007C18.066,50.537,18.341,50.021,18.534,49.31z"/>
	<path fill="#1D2C4C" d="M5.865,26.8c0.511,1.878,1.724,3.581,3.688,3.581c1.041,0,1.864-0.486,2.491-1.214
		c0.562-0.653,0.966-1.504,1.206-2.399c0.216-0.088,0.386-0.277,0.527-0.495c0.173-0.271,0.275-0.586,0.292-0.896
		c0.004-0.085,0.021-0.172,0.012-0.252c-0.048-0.393-0.261-0.606-0.563-0.706c-0.007-0.142-0.036-0.277-0.054-0.417
		c-0.273-2.126-1.743-3.76-3.91-3.76c-2.295,0-3.829,1.828-3.963,4.145c-0.354,0.083-0.613,0.301-0.666,0.738
		C4.848,25.768,5.244,26.639,5.865,26.8z"/>
	<path fill="#1D2C4C" d="M69.97,42.503c-0.287-4.093-1.006-6.453-1.589-7.765c-0.396-0.894-1.136-1.581-2.043-1.947
		c-1.255-0.504-3.375-1.167-5.839-1.167c-0.791,0-1.529,0.083-2.232,0.193c-0.369,0.057-0.74,0.114-1.078,0.19
		c-1.021,0.231-1.887,0.527-2.526,0.784c-0.254,0.103-0.49,0.235-0.714,0.385c-0.475,0.319-0.862,0.744-1.147,1.242
		c-0.062,0.107-0.133,0.206-0.184,0.32c-0.583,1.312-1.302,3.672-1.588,7.765c-0.054,0.768-0.031,1.809,0.018,2.81
		c0.018,0.333,0.035,0.662,0.056,0.976c0.021,0.312,0.043,0.61,0.063,0.881c0.021,0.269,0.041,0.511,0.059,0.715
		c0.034,0.406,0.061,0.655,0.061,0.655c0.064,0.271,0.118,0.532,0.184,0.771c0.19,0.712,0.466,1.228,1.332,1.265
		c0.057,0.001,0.101-0.006,0.15-0.007c0.252-0.008,0.475-0.051,0.659-0.134c0.144-0.076,0.209-0.153,0.287-0.218
		c0.071-0.061,0.161-0.103,0.22-0.176c0.141-0.194,0.232-0.379,0.291-0.584c0.062-0.233,0.093-0.464,0.093-0.702
		c0,0-0.051-0.82-0.103-1.987c-0.052-1.168-0.103-2.685-0.103-4.075c0-0.474,0.018-0.906,0.046-1.312
		c0.011-0.151,0.025-0.256,0.036-0.375c0.023-0.258,0.049-0.509,0.082-0.737c0.027-0.177,0.044-0.271,0.061-0.366
		c0.034-0.197,0.069-0.384,0.108-0.555c0.023-0.104,0.048-0.206,0.074-0.301c0.039-0.157,0.082-0.299,0.126-0.43
		c0.023-0.072,0.048-0.149,0.071-0.215c0.049-0.131,0.095-0.235,0.142-0.333c0.017-0.038,0.036-0.087,0.054-0.118
		c0.062-0.119,0.12-0.208,0.171-0.264c0.055-0.046,0.09-0.074,0.115-0.074c0.041,0.016,0.067,0.056,0.067,0.146
		c0,0.122,0,1.133,0,2.695c0,0.341,0,0.705,0,1.097c0,7.627,0,24.07,0,24.07c0,0.311,0.063,0.606,0.177,0.874
		c0.114,0.269,0.278,0.513,0.48,0.715c0.407,0.407,0.969,0.658,1.59,0.658c0.62,0,1.182-0.251,1.587-0.658
		c0.205-0.202,0.368-0.446,0.483-0.715c0.113-0.268,0.177-0.563,0.177-0.874V51.203c0-0.308,0.248-0.556,0.556-0.557
		c0.047,0,0.082,0.016,0.122,0.023c0.032,0.007,0.067,0.007,0.098,0.021c0.037,0.016,0.067,0.044,0.103,0.068
		c0.023,0.019,0.052,0.029,0.072,0.052c0.036,0.036,0.059,0.08,0.085,0.124c0.063,0.119,0.078,0.193,0.078,0.269V65.62
		c0,0.311,0.062,0.606,0.177,0.874c0.113,0.269,0.277,0.513,0.481,0.715c0.406,0.407,0.969,0.658,1.589,0.658
		s1.181-0.251,1.588-0.658c0.202-0.202,0.368-0.446,0.481-0.715c0.113-0.268,0.177-0.563,0.177-0.874c0,0,0-27.197,0-27.862
		c0-0.091,0.025-0.131,0.062-0.137c0.03-0.01,0.064,0.019,0.101,0.053c0.07,0.067,0.129,0.158,0.19,0.275
		c0.019,0.033,0.036,0.079,0.053,0.117c0.049,0.096,0.095,0.202,0.144,0.333c0.023,0.066,0.047,0.144,0.071,0.216
		c0.044,0.133,0.085,0.272,0.126,0.432c0.026,0.095,0.049,0.193,0.072,0.299c0.039,0.171,0.076,0.357,0.11,0.555
		c0.02,0.12,0.04,0.235,0.06,0.366c0.032,0.227,0.058,0.477,0.081,0.733c0.013,0.129,0.027,0.246,0.036,0.381
		c0.028,0.405,0.046,0.837,0.046,1.311c0,2.782-0.205,6.062-0.205,6.062c0,0.238,0.03,0.467,0.089,0.681
		c0.062,0.227,0.154,0.411,0.272,0.57c0.144,0.187,0.299,0.31,0.481,0.401c0.234,0.11,0.456,0.153,0.707,0.161
		c0.051,0.001,0.094,0.008,0.146,0.007c0.727-0.028,1.039-0.392,1.234-0.926c0.069-0.192,0.125-0.41,0.179-0.638
		c0.034-0.153,0.07-0.31,0.108-0.472c0,0,0.025-0.249,0.062-0.655c0.016-0.204,0.037-0.446,0.059-0.715
		c0.019-0.271,0.041-0.568,0.062-0.881c0.021-0.313,0.04-0.643,0.057-0.976C70,44.312,70.023,43.271,69.97,42.503z"/>
	<path fill="#1D2C4C" d="M55.933,25.377c0.016,0.31,0.118,0.625,0.293,0.896c0.14,0.218,0.312,0.407,0.526,0.495
		c0.239,0.896,0.644,1.746,1.206,2.399c0.626,0.728,1.45,1.214,2.492,1.214c1.961,0,3.175-1.703,3.688-3.581
		c0.618-0.161,1.017-1.032,0.938-1.675c-0.053-0.437-0.31-0.655-0.666-0.738c-0.049-0.869-0.295-1.669-0.705-2.329
		c-0.684-1.102-1.821-1.816-3.255-1.816c-2.169,0-3.637,1.633-3.911,3.76c-0.018,0.14-0.048,0.275-0.056,0.417
		c-0.3,0.1-0.515,0.312-0.562,0.706C55.913,25.205,55.928,25.292,55.933,25.377z"/>
</g>
<circle fill="#FFFFFF" cx="35.409" cy="59.003" r="10.997"/>
<g>
	
		<rect x="34.458" y="50.978" transform="matrix(0.7071 0.7071 -0.7071 0.7071 52.0923 -7.756)" fill="#DC1E40" width="1.902" height="16.049"/>
	<path fill="#DC1E40" d="M35.409,67.66c-4.773,0-8.657-3.884-8.657-8.657s3.884-8.657,8.657-8.657c4.773,0,8.657,3.884,8.657,8.657
		S40.182,67.66,35.409,67.66z M35.409,52.248c-3.724,0-6.754,3.03-6.754,6.755s3.03,6.755,6.754,6.755s6.754-3.03,6.754-6.755
		S39.133,52.248,35.409,52.248z"/>
</g>
</svg>
