<?xml version="1.0" encoding="utf-8"?>
<!-- Generator: Adobe Illustrator 15.0.0, SVG Export Plug-In . SVG Version: 6.00 Build 0)  -->
<!DOCTYPE svg PUBLIC "-//W3C//DTD SVG 1.1//EN" "http://www.w3.org/Graphics/SVG/1.1/DTD/svg11.dtd">
<svg version="1.1" id="Layer_1" xmlns="http://www.w3.org/2000/svg" xmlns:xlink="http://www.w3.org/1999/xlink" x="0px" y="0px"
	 width="70px" height="70px" viewBox="0 0 70 70" enable-background="new 0 0 70 70" xml:space="preserve">
<g>
	<g>
		<rect x="30.292" y="20.453" fill="#1D2C4C" width="9.416" height="4.052"/>
		<polygon fill="#1D2C4C" points="35,16.032 30.292,20.453 39.708,20.453 		"/>
		<rect x="34.686" y="9.146" fill="#1D2C4C" width="0.629" height="11.308"/>
		<rect x="65.293" y="28.618" fill="#1D2C4C" width="0.397" height="11.308"/>
		<path fill="#1D2C4C" d="M27.052,24.335v34.134h5.995v-6.885h3.905v6.885h5.995V24.335H27.052z"/>
	</g>
	<g>
		<g>
			<rect x="31.362" y="30.683" fill="#FFFFFF" width="1.744" height="2.035"/>
		</g>
		<g>
			<rect x="34.128" y="30.683" fill="#FFFFFF" width="1.744" height="2.035"/>
		</g>
		<g>
			<rect x="36.895" y="30.683" fill="#FFFFFF" width="1.744" height="2.035"/>
		</g>
		<g>
			<rect x="39.661" y="30.683" fill="#FFFFFF" width="1.743" height="2.035"/>
		</g>
	</g>
	<g>
		<g>
			<rect x="28.595" y="33.887" fill="#FFFFFF" width="1.744" height="2.035"/>
		</g>
		<g>
			<rect x="31.362" y="33.887" fill="#FFFFFF" width="1.744" height="2.035"/>
		</g>
		<g>
			<rect x="34.128" y="33.887" fill="#FFFFFF" width="1.744" height="2.035"/>
		</g>
		<g>
			<rect x="36.895" y="33.887" fill="#FFFFFF" width="1.744" height="2.035"/>
		</g>
	</g>
	<g>
		<g>
			<rect x="31.362" y="37.091" fill="#FFFFFF" width="1.744" height="2.036"/>
		</g>
		<g>
			<rect x="36.895" y="37.091" fill="#FFFFFF" width="1.744" height="2.036"/>
		</g>
		<g>
			<rect x="39.661" y="37.091" fill="#FFFFFF" width="1.743" height="2.036"/>
		</g>
	</g>
	<g>
		<g>
			<rect x="28.595" y="40.294" fill="#FFFFFF" width="1.744" height="2.036"/>
		</g>
		<g>
			<rect x="31.362" y="40.294" fill="#FFFFFF" width="1.744" height="2.036"/>
		</g>
		<g>
			<rect x="34.128" y="40.294" fill="#FFFFFF" width="1.744" height="2.036"/>
		</g>
		<g>
			<rect x="36.895" y="40.294" fill="#FFFFFF" width="1.744" height="2.036"/>
		</g>
		<g>
			<rect x="39.661" y="40.294" fill="#FFFFFF" width="1.743" height="2.036"/>
		</g>
	</g>
	<g>
		<g>
			<rect x="28.595" y="27.419" fill="#FFFFFF" width="1.744" height="2.036"/>
		</g>
		<g>
			<rect x="31.362" y="27.419" fill="#FFFFFF" width="1.744" height="2.036"/>
		</g>
		<g>
			<rect x="34.128" y="27.419" fill="#FFFFFF" width="1.744" height="2.036"/>
		</g>
		<g>
			<rect x="36.895" y="27.419" fill="#FFFFFF" width="1.744" height="2.036"/>
		</g>
		<g>
			<rect x="39.661" y="27.419" fill="#FFFFFF" width="1.743" height="2.036"/>
		</g>
	</g>
	<g>
		<g>
			<rect x="31.362" y="43.499" fill="#FFFFFF" width="1.744" height="2.035"/>
		</g>
		<g>
			<rect x="34.128" y="43.499" fill="#FFFFFF" width="1.744" height="2.035"/>
		</g>
		<g>
			<rect x="36.895" y="43.499" fill="#FFFFFF" width="1.744" height="2.035"/>
		</g>
		<g>
			<rect x="39.661" y="43.499" fill="#FFFFFF" width="1.743" height="2.035"/>
		</g>
	</g>
	<g>
		<g>
			<rect x="28.595" y="46.702" fill="#FFFFFF" width="1.744" height="2.035"/>
		</g>
		<g>
			<rect x="31.362" y="46.702" fill="#FFFFFF" width="1.744" height="2.035"/>
		</g>
		<g>
			<rect x="36.895" y="46.702" fill="#FFFFFF" width="1.744" height="2.035"/>
		</g>
	</g>
	<rect x="42.947" y="33.894" fill="#1D2C4C" width="9.018" height="24.575"/>
	<rect x="18.036" y="36.156" fill="#1D2C4C" width="9.017" height="22.312"/>
	<polygon fill="#1D2C4C" points="9.018,33.691 9.018,58.469 18.036,58.469 18.036,27.894 	"/>
	<g>
		<path fill="#1D2C4C" d="M9.018,42.825H0v9.467c0.938,2.17,2.068,4.238,3.376,6.177h5.642V42.825z"/>
	</g>
	<rect x="1.608" y="39.104" fill="#1D2C4C" width="5.802" height="6.814"/>
	<g>
		<g>
			<rect x="44.358" y="35.597" fill="#FFFFFF" width="1.393" height="1.625"/>
		</g>
		<g>
			<rect x="46.76" y="35.597" fill="#FFFFFF" width="1.393" height="1.625"/>
		</g>
		<g>
			<rect x="49.161" y="35.597" fill="#FFFFFF" width="1.393" height="1.625"/>
		</g>
	</g>
	<g>
		<g>
			<rect x="46.76" y="38.206" fill="#FFFFFF" width="1.393" height="1.626"/>
		</g>
		<g>
			<rect x="49.161" y="38.206" fill="#FFFFFF" width="1.393" height="1.626"/>
		</g>
	</g>
	<g>
		<g>
			<rect x="44.358" y="40.816" fill="#FFFFFF" width="1.393" height="1.624"/>
		</g>
		<g>
			<rect x="46.76" y="40.816" fill="#FFFFFF" width="1.393" height="1.624"/>
		</g>
		<g>
			<rect x="49.161" y="40.816" fill="#FFFFFF" width="1.393" height="1.624"/>
		</g>
	</g>
	<g>
		<g>
			<rect x="44.358" y="43.426" fill="#FFFFFF" width="1.393" height="1.625"/>
		</g>
		<g>
			<rect x="49.161" y="43.426" fill="#FFFFFF" width="1.393" height="1.625"/>
		</g>
	</g>
	<g>
		<g>
			<rect x="44.358" y="46.035" fill="#FFFFFF" width="1.393" height="1.626"/>
		</g>
		<g>
			<rect x="46.76" y="46.035" fill="#FFFFFF" width="1.393" height="1.626"/>
		</g>
		<g>
			<rect x="49.161" y="46.035" fill="#FFFFFF" width="1.393" height="1.626"/>
		</g>
	</g>
	<g>
		<g>
			<rect x="46.76" y="48.645" fill="#FFFFFF" width="1.393" height="1.625"/>
		</g>
		<g>
			<rect x="49.161" y="48.645" fill="#FFFFFF" width="1.393" height="1.625"/>
		</g>
	</g>
	<polygon fill="#1D2C4C" points="51.965,19.847 51.965,58.469 60.982,58.469 60.982,26.298 	"/>
	<g>
		<g>
			<rect x="21.757" y="38.11" fill="#FFFFFF" width="1.392" height="1.625"/>
		</g>
		<g>
			<rect x="24.159" y="38.11" fill="#FFFFFF" width="1.393" height="1.625"/>
		</g>
	</g>
	<g>
		<g>
			<rect x="19.355" y="40.816" fill="#FFFFFF" width="1.393" height="1.624"/>
		</g>
		<g>
			<rect x="21.757" y="40.816" fill="#FFFFFF" width="1.392" height="1.624"/>
		</g>
	</g>
	<g>
		<g>
			<rect x="21.757" y="43.521" fill="#FFFFFF" width="1.392" height="1.626"/>
		</g>
		<g>
			<rect x="24.159" y="43.521" fill="#FFFFFF" width="1.393" height="1.626"/>
		</g>
	</g>
	<g>
		<g>
			<rect x="19.355" y="46.229" fill="#FFFFFF" width="1.393" height="1.625"/>
		</g>
		<g>
			<rect x="21.757" y="46.229" fill="#FFFFFF" width="1.392" height="1.625"/>
		</g>
		<g>
			<rect x="24.159" y="46.229" fill="#FFFFFF" width="1.393" height="1.625"/>
		</g>
	</g>
	<g>
		<g>
			<rect x="19.355" y="48.935" fill="#FFFFFF" width="1.393" height="1.625"/>
		</g>
		<g>
			<rect x="21.757" y="48.935" fill="#FFFFFF" width="1.392" height="1.625"/>
		</g>
	</g>
	<g>
		<g>
			<rect x="1.411" y="44.586" fill="#FFFFFF" width="1.393" height="1.625"/>
		</g>
		<g>
			<rect x="3.812" y="44.586" fill="#FFFFFF" width="1.393" height="1.625"/>
		</g>
	</g>
	<g>
		<g>
			<rect x="3.812" y="47.461" fill="#FFFFFF" width="1.393" height="1.625"/>
		</g>
		<g>
			<rect x="6.214" y="47.461" fill="#FFFFFF" width="1.392" height="1.625"/>
		</g>
	</g>
	<g>
		<g>
			<rect x="1.411" y="50.336" fill="#FFFFFF" width="1.393" height="1.625"/>
		</g>
		<g>
			<rect x="3.812" y="50.336" fill="#FFFFFF" width="1.393" height="1.625"/>
		</g>
	</g>
	<g>
		<rect x="10.392" y="35.281" fill="#FFFFFF" width="6.268" height="1.166"/>
		<rect x="10.392" y="38.064" fill="#FFFFFF" width="6.268" height="1.166"/>
		<rect x="10.392" y="40.849" fill="#FFFFFF" width="6.268" height="1.165"/>
		<rect x="10.392" y="43.632" fill="#FFFFFF" width="6.268" height="1.166"/>
		<rect x="10.392" y="46.415" fill="#FFFFFF" width="6.268" height="1.166"/>
		<rect x="10.392" y="49.199" fill="#FFFFFF" width="6.268" height="1.165"/>
	</g>
	<g>
		<g>
			<rect x="53.993" y="26.202" fill="#FFFFFF" width="0.867" height="26.987"/>
		</g>
		<g>
			<rect x="56.041" y="26.202" fill="#FFFFFF" width="0.866" height="26.987"/>
		</g>
		<g>
			<rect x="58.088" y="26.202" fill="#FFFFFF" width="0.866" height="26.987"/>
		</g>
	</g>
	<g>
		<g>
			<path fill="#1D2C4C" d="M70,42.246h-9.018v16.223h5.642c1.308-1.938,2.438-4.007,3.376-6.177V42.246z"/>
		</g>
		<rect x="62.367" y="37.606" fill="#1D2C4C" width="6.248" height="12.819"/>
		<rect x="63.601" y="34.271" fill="#1D2C4C" width="3.781" height="9.051"/>
		<g>
			<g>
				<rect x="62.394" y="43.814" fill="#FFFFFF" width="1.393" height="1.234"/>
			</g>
			<g>
				<rect x="64.795" y="43.814" fill="#FFFFFF" width="1.393" height="1.234"/>
			</g>
			<g>
				<rect x="67.196" y="43.814" fill="#FFFFFF" width="1.393" height="1.234"/>
			</g>
		</g>
		<g>
			<g>
				<rect x="64.795" y="46.134" fill="#FFFFFF" width="1.393" height="1.234"/>
			</g>
			<g>
				<rect x="67.196" y="46.134" fill="#FFFFFF" width="1.393" height="1.234"/>
			</g>
		</g>
		<g>
			<g>
				<rect x="62.394" y="48.454" fill="#FFFFFF" width="1.393" height="1.233"/>
			</g>
			<g>
				<rect x="64.795" y="48.454" fill="#FFFFFF" width="1.393" height="1.233"/>
			</g>
			<g>
				<rect x="67.196" y="48.454" fill="#FFFFFF" width="1.393" height="1.233"/>
			</g>
		</g>
		<g>
			<g>
				<rect x="62.394" y="50.773" fill="#FFFFFF" width="1.393" height="1.234"/>
			</g>
			<g>
				<rect x="64.795" y="50.773" fill="#FFFFFF" width="1.393" height="1.234"/>
			</g>
		</g>
		<g>
			<g>
				<rect x="63.595" y="40.528" fill="#FFFFFF" width="1.393" height="1.032"/>
			</g>
			<g>
				<rect x="65.996" y="40.528" fill="#FFFFFF" width="1.392" height="1.032"/>
			</g>
		</g>
		<g>
			<g>
				<rect x="65.996" y="38.691" fill="#FFFFFF" width="1.392" height="1.032"/>
			</g>
		</g>
	</g>
</g>
<circle fill="#FFFFFF" cx="35.409" cy="59.003" r="10.997"/>
<g>
	
		<rect x="34.458" y="50.978" transform="matrix(0.7071 0.7071 -0.7071 0.7071 52.0923 -7.756)" fill="#DC1E40" width="1.902" height="16.049"/>
	<path fill="#DC1E40" d="M35.409,67.66c-4.773,0-8.657-3.884-8.657-8.657s3.884-8.657,8.657-8.657c4.773,0,8.657,3.884,8.657,8.657
		S40.182,67.66,35.409,67.66z M35.409,52.248c-3.724,0-6.754,3.03-6.754,6.755s3.03,6.755,6.754,6.755s6.754-3.03,6.754-6.755
		S39.133,52.248,35.409,52.248z"/>
</g>
</svg>
