<?xml version="1.0" encoding="utf-8"?>
<!-- Generator: Adobe Illustrator 15.0.0, SVG Export Plug-In . SVG Version: 6.00 Build 0)  -->
<!DOCTYPE svg PUBLIC "-//W3C//DTD SVG 1.1//EN" "http://www.w3.org/Graphics/SVG/1.1/DTD/svg11.dtd">
<svg version="1.1" id="Layer_1" xmlns="http://www.w3.org/2000/svg" xmlns:xlink="http://www.w3.org/1999/xlink" x="0px" y="0px"
	 width="70px" height="70px" viewBox="0 0 70 70" enable-background="new 0 0 70 70" xml:space="preserve">
<g>
	<path fill="#1D2C4C" d="M60.811,34.361c-1.173-0.805-2.656-0.979-4.13-0.54c0.63-3.692,1.113-7.95,1.268-12.203
		c0.292-8.022-3.457-13.829-9.411-15.366C39.509-4.12,22.219-0.249,15.427,8.145c-6.208,6.252-5.171,16.733-4.473,25.52
		c-1.247-0.212-2.468,0.014-3.462,0.696c-1.062,0.729-2.768,2.6-2.264,6.944c0.674,5.795,4.261,8.68,7.677,8.338
		c0.987,4.215,2.923,7.555,4.571,10.033c0.243,1.51,0.726,3.203,1.52,4.453C20.498,66.498,26.364,70,34.182,70
		c7.818,0,13.684-3.502,15.199-5.891c0.626-1.035,1.088-2.598,1.404-4.389c0.256-0.316,0.54-0.609,0.766-0.961
		c2.848-4.449,3.36-7.107,3.91-9.041c3.248-0.133,6.94-2.619,7.614-8.414C63.579,36.961,61.873,35.089,60.811,34.361z
		 M17.165,55.541c-2.092-3.65-2.91-6.988-2.919-7.027l-0.209-0.877l-0.897,0.084c-2.303,0.223-5.242-1.389-5.853-6.654
		c-0.277-2.385,0.225-4.205,1.378-4.998c0.677-0.464,3.141-0.889,5.19,3.477l4.075,7.111C17.13,48.945,17.031,52.227,17.165,55.541z
		 M48.666,59.057c-0.244,1.518-0.6,2.824-1.069,3.691c-0.033,0.061-0.063,0.137-0.098,0.193c-0.789,1.242-5.596,4.844-13.317,4.844
		c-7.721,0-12.528-3.602-13.316-4.844c-0.023-0.035-0.041-0.076-0.064-0.113c-0.628-1.049-1.004-2.529-1.18-3.795
		c-0.049-0.346-0.086-0.68-0.105-0.977c-0.168-2.518-0.556-8.359,0.627-11.053c0.016-0.037,0.03-0.08,0.046-0.115
		c0.042-0.057,0.168-0.176,0.401-0.342c0.402-0.287,1.129-0.723,2.333-1.264c3.577-1.607,7.417-2.412,11.258-2.412
		s7.681,0.805,11.259,2.412c1.226,0.551,1.95,0.988,2.348,1.277c0.201,0.145,0.324,0.254,0.374,0.314
		c0.015,0.031,0.027,0.076,0.043,0.107C49.168,49.158,49.341,54.871,48.666,59.057z M48.94,44.66
		c-0.556-0.385-1.374-0.85-2.593-1.398c-7.73-3.473-16.6-3.473-24.333,0c-1.213,0.545-2.03,1.01-2.585,1.393l-5.663-9.244
		c-0.075-2.588-0.138-4.759-0.138-4.774c0.041-4.565,2.722-7.058,7.197-7.964c7.423-1.502,18.989-2.97,24.062-6.935
		c7.416,14.225,9.186,7.693,8.874,20.962L48.94,44.66z M61.017,41.066c-0.612,5.268-3.55,6.877-5.854,6.654l-0.896-0.084
		l-0.209,0.877c-0.01,0.039-0.8,3.266-2.815,6.846c0.146-3.33-0.126-6.693-0.793-8.703l5.103-9.062
		c0.634-1.127,1.835-1.882,3.125-1.801c0.378,0.023,0.717,0.108,0.962,0.276C60.792,36.861,61.294,38.682,61.017,41.066z"/>
	<circle fill="#1D2C4C" cx="23.95" cy="34.999" r="2.305"/>
	<circle fill="#1D2C4C" cx="44.438" cy="34.999" r="2.305"/>
	<path fill="#1D2C4C" d="M43.759,59.609c-1.33,1.516-4.883,3.062-9.82,3.107c-0.038,0-0.078,0-0.118,0
		c-3.355,0-7.3-1.246-9.335-2.436c-0.277-0.16-0.634-0.068-0.795,0.209c-0.163,0.277-0.068,0.635,0.209,0.795
		c1.798,1.051,5.903,2.596,9.914,2.596c0.046,0,0.091,0,0.138,0c4.657-0.043,8.851-1.418,10.683-3.504
		c0.211-0.24,0.188-0.609-0.054-0.82C44.339,59.344,43.972,59.369,43.759,59.609z"/>
	<path fill="#1D2C4C" d="M24.183,55.773c0.826,0.047,1.775,0.133,2.801,0.225c2.042,0.182,4.348,0.389,6.618,0.389
		c0.068,0,0.138,0,0.205,0c4.251-0.025,7.924-0.537,10.316-0.92c0.316-0.051,0.532-0.35,0.482-0.666
		c-0.051-0.318-0.358-0.535-0.667-0.482c-2.354,0.377-5.968,0.879-10.139,0.904c-2.284,0.027-4.635-0.197-6.712-0.383
		c-1.04-0.094-2.002-0.18-2.839-0.227c-0.338-0.002-0.595,0.229-0.613,0.547C23.617,55.482,23.863,55.756,24.183,55.773z"/>
	<path fill="#1D2C4C" d="M24.396,50.162c6.245-1.754,13.1-1.689,19.303,0.184c0.056,0.018,0.112,0.025,0.168,0.025
		c0.25,0,0.48-0.162,0.557-0.412c0.093-0.309-0.08-0.633-0.389-0.725c-6.41-1.936-13.497-2.006-19.952-0.193
		c-0.31,0.088-0.49,0.41-0.403,0.719C23.767,50.07,24.091,50.248,24.396,50.162z"/>
</g>
</svg>
