<?xml version="1.0" encoding="utf-8"?>
<!-- Generator: Adobe Illustrator 15.0.0, SVG Export Plug-In . SVG Version: 6.00 Build 0)  -->
<!DOCTYPE svg PUBLIC "-//W3C//DTD SVG 1.1//EN" "http://www.w3.org/Graphics/SVG/1.1/DTD/svg11.dtd">
<svg version="1.1" id="Layer_1" xmlns="http://www.w3.org/2000/svg" xmlns:xlink="http://www.w3.org/1999/xlink" x="0px" y="0px"
	 width="70px" height="70px" viewBox="0 0 70 70" enable-background="new 0 0 70 70" xml:space="preserve">
<g>
	<path fill="#1D2C4C" d="M19.2,15.288c-1.736-3.935-4.922-9.541-4.942-9.574c-0.019,0.033-3.206,5.64-4.941,9.574
		c-1.542,3.497,0.86,7.548,4.679,7.72c0.087,0.003,0.174,0.006,0.263,0.006c0.09,0,0.177-0.002,0.264-0.006
		C18.341,22.835,20.742,18.785,19.2,15.288z M14.216,20.95c-1.249-0.054-2.319-0.686-2.966-1.731
		c-0.656-1.056-0.748-2.364-0.249-3.497c0.163-0.365,0.59-0.532,0.957-0.371c0.367,0.161,0.533,0.59,0.372,0.957
		c-0.307,0.694-0.25,1.496,0.153,2.145c0.393,0.633,1.036,1.014,1.765,1.046c0.401,0.019,0.71,0.357,0.693,0.757
		C14.922,20.647,14.602,20.95,14.216,20.95z"/>
	<path fill="#1D2C4C" d="M15.403,2.942c0.246,0.183,0.51,0.358,0.75,0.472c0.12,0.057,0.234,0.099,0.337,0.119
		c0.103,0.021,0.193,0.019,0.269-0.012c0.897-0.366,2.403-0.843,4.451-1.03c0.511-0.047,1.057-0.076,1.636-0.079
		c0.578-0.004,1.189,0.016,1.832,0.067c1.286,0.102,2.698,0.327,4.229,0.727c0.995,0.26,2.01,0.497,3.026,0.718
		c0,0.008,0,6.176,0,6.176h8.189V4.666c0.361-0.042,0.729-0.096,1.099-0.157c0.208-0.034,0.412-0.075,0.617-0.115
		c0.25-0.048,0.497-0.097,0.739-0.151c0.159-0.036,0.318-0.071,0.472-0.109c0.396-0.096,0.785-0.196,1.131-0.3
		c0.132-0.039,0.229-0.122,0.286-0.226c0.057-0.104,0.075-0.23,0.038-0.354L43.926,1.3c-0.05-0.171-0.202-0.276-0.368-0.281
		c-0.055-0.001-0.11,0.008-0.167,0.03c-1.823,0.731-4.049,0.871-6.454,0.72c-1.202-0.076-2.45-0.225-3.715-0.408
		c-1.265-0.185-2.547-0.404-3.818-0.623c-0.876-0.15-1.742-0.298-2.59-0.433c-1.958-0.311-3.688-0.359-5.188-0.257
		c-0.445,0.03-0.867,0.076-1.273,0.13c-0.643,0.086-1.238,0.197-1.777,0.327c-0.506,0.121-0.959,0.256-1.374,0.396
		c-0.122,0.042-0.239,0.082-0.352,0.123c-0.314,0.115-0.596,0.229-0.847,0.34c-0.139,0.062-0.266,0.121-0.386,0.179
		c-0.301,0.146-0.531,0.274-0.714,0.381c-0.234,0.137-0.378,0.236-0.407,0.256C14.497,2.181,14.912,2.577,15.403,2.942z"/>
	<path fill="#1D2C4C" d="M53.844,32.434c-0.832-5.521-4.199-11.309-9.12-12.863c-0.332-0.105-0.673-0.188-1.018-0.252
		c-0.333-0.062-0.672-0.104-1.018-0.126v-7.059h-2.923h-7.478h-2.924v7.059c-0.345,0.022-0.684,0.064-1.016,0.126
		c-0.347,0.065-0.686,0.147-1.018,0.252c-4.921,1.554-8.288,7.341-9.122,12.863c-0.141,0.935-0.179,1.883-0.179,2.827v29.236
		c0,3.04,2.464,5.503,5.505,5.503h12.491h12.492c3.04,0,5.505-2.463,5.505-5.503V35.261C54.023,34.316,53.985,33.368,53.844,32.434z
		 M51.727,64.497c0,1.77-1.438,3.207-3.208,3.207H36.026H23.535c-1.77,0-3.209-1.438-3.209-3.207V35.261
		c0-1.019,0.047-1.785,0.153-2.484c0.682-4.523,3.295-9.173,6.852-10.758c0.82-0.365,1.692-0.568,2.601-0.568h6.095h6.095
		c0.91,0,1.781,0.203,2.603,0.568c3.555,1.585,6.169,6.235,6.851,10.758c0.106,0.699,0.152,1.466,0.152,2.484V64.497z"/>
	<path fill="#1D2C4C" d="M37.793,39.434c-8.657,1.112-14.425,2.976-18.344,1.053v25.542c0,1.105,0.899,2.004,2.004,2.004h26.283
		c1.104,0,2.002-0.898,2.002-2.004V40.757C47.824,39.461,44.031,38.631,37.793,39.434z M42.461,60.319
		c-1.783,0-3.228-1.444-3.228-3.228c0-1.782,1.444-3.228,3.228-3.228c1.781,0,3.227,1.445,3.227,3.228
		C45.688,58.875,44.242,60.319,42.461,60.319z M32.878,48.646c0,2.29-1.854,4.145-4.144,4.145s-4.145-1.854-4.145-4.145
		c0-2.287,1.856-4.144,4.145-4.144S32.878,46.358,32.878,48.646z"/>
</g>
</svg>
